OctagonVariable-Right.ufo
<glyph name="exclam" format="2">
  <advance width="240"/>
  <unicode hex="0021"/>
  <outline>
    <contour>
      <point x="75" y="190" type="line"/>
      <point x="166" y="190" type="line"/>
      <point x="166" y="210" type="line"/>
      <point x="75" y="210" type="line"/>
    </contour>
    <contour>
      <point x="75" y="190" type="line"/>
      <point x="95" y="190" type="line"/>
      <point x="30" y="600" type="line"/>
      <point x="10" y="600" type="line"/>
    </contour>
    <contour>
      <point x="147" y="200" type="line"/>
      <point x="167" y="200" type="line"/>
      <point x="167" y="513" type="line"/>
      <point x="147" y="513" type="line"/>
    </contour>
    <contour>
      <point x="146" y="190" type="line"/>
      <point x="166" y="190" type="line"/>
      <point x="230" y="600" type="line"/>
      <point x="210" y="600" type="line"/>
    </contour>
    <contour>
      <point x="149" y="496" type="line"/>
      <point x="162" y="511" type="line"/>
      <point x="31" y="595" type="line"/>
      <point x="18" y="580" type="line"/>
    </contour>
    <contour>
      <point x="19" y="580" type="line"/>
      <point x="220" y="580" type="line"/>
      <point x="220" y="600" type="line"/>
      <point x="19" y="600" type="line"/>
    </contour>
    <contour>
      <point x="164" y="496" type="line"/>
      <point x="221" y="580" type="line"/>
      <point x="208" y="595" type="line"/>
      <point x="151" y="511" type="line"/>
    </contour>
    <contour>
      <point x="37" y="0" type="line"/>
      <point x="202" y="0" type="line"/>
      <point x="202" y="18" type="line"/>
      <point x="37" y="18" type="line"/>
    </contour>
    <contour>
      <point x="51" y="0" type="line"/>
      <point x="167" y="69" type="line"/>
      <point x="158" y="89" type="line"/>
      <point x="37" y="14" type="line"/>
    </contour>
    <contour>
      <point x="188" y="0" type="line"/>
      <point x="202" y="14" type="line"/>
      <point x="173" y="90" type="line"/>
      <point x="161" y="70" type="line"/>
    </contour>
    <contour>
      <point x="37" y="0" type="line"/>
      <point x="57" y="0" type="line"/>
      <point x="57" y="165" type="line"/>
      <point x="37" y="165" type="line"/>
    </contour>
    <contour>
      <point x="158" y="74" type="line"/>
      <point x="174" y="74" type="line"/>
      <point x="174" y="91" type="line"/>
      <point x="158" y="91" type="line"/>
    </contour>
    <contour>
      <point x="182" y="0" type="line"/>
      <point x="202" y="0" type="line"/>
      <point x="202" y="165" type="line"/>
      <point x="182" y="165" type="line"/>
    </contour>
    <contour>
      <point x="159" y="76" type="line"/>
      <point x="168" y="96" type="line"/>
      <point x="51" y="165" type="line"/>
      <point x="37" y="151" type="line"/>
    </contour>
    <contour>
      <point x="40" y="147" type="line"/>
      <point x="202" y="147" type="line"/>
      <point x="202" y="165" type="line"/>
      <point x="40" y="165" type="line"/>
    </contour>
    <contour>
      <point x="173" y="76" type="line"/>
      <point x="201" y="151" type="line"/>
      <point x="187" y="165" type="line"/>
      <point x="161" y="96" type="line"/>
    </contour>
  </outline>
</glyph>
<glyph name="quotesingle" format="2">
  <advance width="132"/>
  <unicode hex="0027"/>
  <outline>
    <contour>
      <point x="30" y="403" type="line"/>
      <point x="102" y="403" type="line"/>
      <point x="102" y="416" type="line"/>
      <point x="30" y="416" type="line"/>
    </contour>
    <contour>
      <point x="41" y="403" type="line"/>
      <point x="80" y="498" type="line"/>
      <point x="71" y="514" type="line"/>
      <point x="30" y="414" type="line"/>
    </contour>
    <contour>
      <point x="90" y="403" type="line"/>
      <point x="102" y="414" type="line"/>
      <point x="84" y="515" type="line"/>
      <point x="75" y="499" type="line"/>
    </contour>
    <contour>
      <point x="30" y="403" type="line"/>
      <point x="44" y="403" type="line"/>
      <point x="44" y="615" type="line"/>
      <point x="30" y="615" type="line"/>
    </contour>
    <contour>
      <point x="71" y="502" type="line"/>
      <point x="85" y="502" type="line"/>
      <point x="85" y="515" type="line"/>
      <point x="71" y="515" type="line"/>
    </contour>
    <contour>
      <point x="88" y="403" type="line"/>
      <point x="102" y="403" type="line"/>
      <point x="102" y="615" type="line"/>
      <point x="88" y="615" type="line"/>
    </contour>
    <contour>
      <point x="72" y="503" type="line"/>
      <point x="80" y="519" type="line"/>
      <point x="41" y="615" type="line"/>
      <point x="30" y="603" type="line"/>
    </contour>
    <contour>
      <point x="32" y="601" type="line"/>
      <point x="102" y="601" type="line"/>
      <point x="102" y="615" type="line"/>
      <point x="32" y="615" type="line"/>
    </contour>
    <contour>
      <point x="84" y="503" type="line"/>
      <point x="101" y="603" type="line"/>
      <point x="90" y="615" type="line"/>
      <point x="75" y="519" type="line"/>
    </contour>
  </outline>
</glyph>
<glyph name="asterisk" format="2">
  <advance width="382"/>
  <unicode hex="002A"/>
  <outline>
    <contour>
      <point x="88" y="339" type="line"/>
      <point x="193" y="415" type="line"/>
      <point x="183" y="425" type="line"/>
      <point x="81" y="352" type="line"/>
    </contour>
    <contour>
      <point x="76" y="558" type="line"/>
      <point x="87" y="547" type="line"/>
      <point x="119" y="578" type="line"/>
      <point x="107" y="590" type="line"/>
    </contour>
    <contour>
      <point x="55" y="369" type="line"/>
      <point x="87" y="337" type="line"/>
      <point x="98" y="349" type="line"/>
      <point x="66" y="380" type="line"/>
    </contour>
    <contour>
      <point x="129" y="462" type="line"/>
      <point x="139" y="472" type="line"/>
      <point x="88" y="566" type="line"/>
      <point x="76" y="558" type="line"/>
    </contour>
    <contour>
      <point x="55" y="369" type="line"/>
      <point x="69" y="363" type="line"/>
      <point x="140" y="461" type="line"/>
      <point x="129" y="472" type="line"/>
    </contour>
    <contour>
      <point x="64" y="361" type="line"/>
      <point x="175" y="421" type="line"/>
      <point x="176" y="438" type="line"/>
      <point x="63" y="377" type="line"/>
    </contour>
    <contour>
      <point x="83" y="550" type="line"/>
      <point x="186" y="472" type="line"/>
      <point x="189" y="484" type="line"/>
      <point x="83" y="566" type="line"/>
    </contour>
    <contour>
      <point x="79" y="345" type="line"/>
      <point x="95" y="345" type="line"/>
      <point x="185" y="428" type="line"/>
      <point x="168" y="429" type="line"/>
    </contour>
    <contour>
      <point x="181" y="477" type="line"/>
      <point x="194" y="480" type="line"/>
      <point x="116" y="583" type="line"/>
      <point x="100" y="582" type="line"/>
    </contour>
    <contour>
      <point x="99" y="577" type="line"/>
      <point x="194" y="524" type="line"/>
      <point x="205" y="535" type="line"/>
      <point x="107" y="590" type="line"/>
    </contour>
    <contour>
      <point x="125" y="458" type="line"/>
      <point x="198" y="451" type="line"/>
      <point x="200" y="466" type="line"/>
      <point x="126" y="472" type="line"/>
    </contour>
    <contour>
      <point x="175" y="417" type="line"/>
      <point x="190" y="417" type="line"/>
      <point x="213" y="463" type="line"/>
      <point x="196" y="462" type="line"/>
    </contour>
    <contour>
      <point x="166" y="429" type="line"/>
      <point x="176" y="419" type="line"/>
      <point x="244" y="487" type="line"/>
      <point x="234" y="497" type="line"/>
    </contour>
    <contour>
      <point x="180" y="476" type="line"/>
      <point x="220" y="436" type="line"/>
      <point x="230" y="446" type="line"/>
      <point x="190" y="486" type="line"/>
    </contour>
    <contour>
      <point x="197" y="458" type="line"/>
      <point x="214" y="460" type="line"/>
      <point x="208" y="533" type="line"/>
      <point x="191" y="533" type="line"/>
    </contour>
    <contour>
      <point x="204" y="450" type="line"/>
      <point x="251" y="473" type="line"/>
      <point x="252" y="489" type="line"/>
      <point x="205" y="467" type="line"/>
    </contour>
    <contour>
      <point x="177" y="414" type="line"/>
      <point x="273" y="361" type="line"/>
      <point x="279" y="373" type="line"/>
      <point x="187" y="424" type="line"/>
    </contour>
    <contour>
      <point x="191" y="533" type="line"/>
      <point x="202" y="523" type="line"/>
      <point x="303" y="596" type="line"/>
      <point x="295" y="609" type="line"/>
    </contour>
    <contour>
      <point x="265" y="368" type="line"/>
      <point x="281" y="368" type="line"/>
      <point x="228" y="445" type="line"/>
      <point x="215" y="443" type="line"/>
    </contour>
    <contour>
      <point x="230" y="491" type="line"/>
      <point x="243" y="489" type="line"/>
      <point x="303" y="600" type="line"/>
      <point x="286" y="600" type="line"/>
    </contour>
    <contour>
      <point x="220" y="438" type="line"/>
      <point x="297" y="385" type="line"/>
      <point x="298" y="401" type="line"/>
      <point x="223" y="451" type="line"/>
    </contour>
    <contour>
      <point x="239" y="482" type="line"/>
      <point x="318" y="569" type="line"/>
      <point x="319" y="585" type="line"/>
      <point x="234" y="496" type="line"/>
    </contour>
    <contour>
      <point x="291" y="388" type="line"/>
      <point x="305" y="392" type="line"/>
      <point x="248" y="491" type="line"/>
      <point x="238" y="481" type="line"/>
    </contour>
    <contour>
      <point x="240" y="482" type="line"/>
      <point x="250" y="472" type="line"/>
      <point x="327" y="577" type="line"/>
      <point x="315" y="585" type="line"/>
    </contour>
    <contour>
      <point x="262" y="372" type="line"/>
      <point x="273" y="361" type="line"/>
      <point x="305" y="392" type="line"/>
      <point x="293" y="404" type="line"/>
    </contour>
    <contour>
      <point x="283" y="597" type="line"/>
      <point x="315" y="565" type="line"/>
      <point x="327" y="577" type="line"/>
      <point x="295" y="609" type="line"/>
    </contour>
  </outline>
</glyph>
<glyph name="plus" format="2">
  <advance width="411"/>
  <unicode hex="002B"/>
  <outline>
    <contour>
      <point x="252" y="113" type="line"/>
      <point x="270" y="113" type="line"/>
      <point x="270" y="489" type="line"/>
      <point x="252" y="489" type="line"/>
    </contour>
    <contour>
      <point x="15" y="264" type="line"/>
      <point x="32" y="264" type="line"/>
      <point x="32" y="349" type="line"/>
      <point x="15" y="349" type="line"/>
    </contour>
    <contour>
      <point x="31" y="264" type="line"/>
      <point x="111" y="301" type="line"/>
      <point x="98" y="311" type="line"/>
      <point x="17" y="274" type="line"/>
    </contour>
    <contour>
      <point x="179" y="113" type="line"/>
      <point x="270" y="113" type="line"/>
      <point x="270" y="131" type="line"/>
      <point x="179" y="131" type="line"/>
    </contour>
    <contour>
      <point x="184" y="113" type="line"/>
      <point x="249" y="164" type="line"/>
      <point x="242" y="179" type="line"/>
      <point x="178" y="129" type="line"/>
    </contour>
    <contour>
      <point x="15" y="264" type="line"/>
      <point x="178" y="264" type="line"/>
      <point x="178" y="281" type="line"/>
      <point x="15" y="281" type="line"/>
    </contour>
    <contour>
      <point x="98" y="302" type="line"/>
      <point x="111" y="312" type="line"/>
      <point x="31" y="349" type="line"/>
      <point x="17" y="339" type="line"/>
    </contour>
    <contour>
      <point x="256" y="114" type="line"/>
      <point x="269" y="126" type="line"/>
      <point x="244" y="176" type="line"/>
      <point x="233" y="163" type="line"/>
    </contour>
    <contour>
      <point x="93" y="298" type="line"/>
      <point x="178" y="298" type="line"/>
      <point x="178" y="315" type="line"/>
      <point x="93" y="315" type="line"/>
    </contour>
    <contour>
      <point x="15" y="332" type="line"/>
      <point x="178" y="332" type="line"/>
      <point x="178" y="349" type="line"/>
      <point x="15" y="349" type="line"/>
    </contour>
    <contour>
      <point x="171" y="113" type="line"/>
      <point x="189" y="113" type="line"/>
      <point x="189" y="489" type="line"/>
      <point x="171" y="489" type="line"/>
    </contour>
    <contour>
      <point x="249" y="158" type="line"/>
      <point x="249" y="449" type="line"/>
      <point x="234" y="449" type="line"/>
      <point x="234" y="158" type="line"/>
    </contour>
    <contour>
      <point x="267" y="265" type="line"/>
      <point x="396" y="265" type="line"/>
      <point x="396" y="282" type="line"/>
      <point x="267" y="282" type="line"/>
    </contour>
    <contour>
      <point x="267" y="299" type="line"/>
      <point x="368" y="299" type="line"/>
      <point x="368" y="316" type="line"/>
      <point x="267" y="316" type="line"/>
    </contour>
    <contour>
      <point x="239" y="439" type="line"/>
      <point x="250" y="452" type="line"/>
      <point x="185" y="501" type="line"/>
      <point x="172" y="489" type="line"/>
    </contour>
    <contour>
      <point x="380" y="265" type="line"/>
      <point x="394" y="275" type="line"/>
      <point x="363" y="312" type="line"/>
      <point x="350" y="302" type="line"/>
    </contour>
    <contour>
      <point x="267" y="333" type="line"/>
      <point x="396" y="333" type="line"/>
      <point x="396" y="350" type="line"/>
      <point x="267" y="350" type="line"/>
    </contour>
    <contour>
      <point x="241" y="436" type="line"/>
      <point x="263" y="486" type="line"/>
      <point x="257" y="502" type="line"/>
      <point x="234" y="451" type="line"/>
    </contour>
    <contour>
      <point x="171" y="484" type="line"/>
      <point x="270" y="484" type="line"/>
      <point x="270" y="502" type="line"/>
      <point x="171" y="502" type="line"/>
    </contour>
    <contour>
      <point x="363" y="303" type="line"/>
      <point x="394" y="340" type="line"/>
      <point x="380" y="350" type="line"/>
      <point x="350" y="313" type="line"/>
    </contour>
    <contour>
      <point x="379" y="265" type="line"/>
      <point x="396" y="265" type="line"/>
      <point x="396" y="350" type="line"/>
      <point x="379" y="350" type="line"/>
    </contour>
  </outline>
</glyph>
<glyph name="comma" format="2">
  <advance width="195"/>
  <unicode hex="002C"/>
  <outline>
    <contour>
      <point x="15" y="64" type="line"/>
      <point x="180" y="64" type="line"/>
      <point x="180" y="82" type="line"/>
      <point x="15" y="82" type="line"/>
    </contour>
    <contour>
      <point x="29" y="64" type="line"/>
      <point x="150" y="133" type="line"/>
      <point x="141" y="153" type="line"/>
      <point x="15" y="78" type="line"/>
    </contour>
    <contour>
      <point x="166" y="64" type="line"/>
      <point x="180" y="78" type="line"/>
      <point x="153" y="154" type="line"/>
      <point x="144" y="134" type="line"/>
    </contour>
    <contour>
      <point x="15" y="64" type="line"/>
      <point x="35" y="64" type="line"/>
      <point x="35" y="229" type="line"/>
      <point x="15" y="229" type="line"/>
    </contour>
    <contour>
      <point x="141" y="138" type="line"/>
      <point x="154" y="138" type="line"/>
      <point x="154" y="155" type="line"/>
      <point x="141" y="155" type="line"/>
    </contour>
    <contour>
      <point x="160" y="64" type="line"/>
      <point x="180" y="64" type="line"/>
      <point x="180" y="229" type="line"/>
      <point x="160" y="229" type="line"/>
    </contour>
    <contour>
      <point x="142" y="140" type="line"/>
      <point x="151" y="160" type="line"/>
      <point x="29" y="229" type="line"/>
      <point x="15" y="215" type="line"/>
    </contour>
    <contour>
      <point x="18" y="211" type="line"/>
      <point x="180" y="211" type="line"/>
      <point x="180" y="229" type="line"/>
      <point x="18" y="229" type="line"/>
    </contour>
    <contour>
      <point x="153" y="140" type="line"/>
      <point x="179" y="215" type="line"/>
      <point x="165" y="229" type="line"/>
      <point x="144" y="160" type="line"/>
    </contour>
    <contour>
      <point x="15" y="-63" type="line"/>
      <point x="35" y="-63" type="line"/>
      <point x="35" y="17" type="line"/>
      <point x="15" y="20" type="line"/>
    </contour>
    <contour>
      <point x="28" y="5" type="line"/>
      <point x="94" y="64" type="line"/>
      <point x="77" y="78" type="line"/>
      <point x="15" y="20" type="line"/>
    </contour>
    <contour>
      <point x="30" y="-75" type="line"/>
      <point x="180" y="64" type="line"/>
      <point x="167" y="79" type="line"/>
      <point x="15" y="-62" type="line"/>
      <point x="15" y="-75" type="line"/>
    </contour>
  </outline>
</glyph>
<glyph name="period" format="2">
  <advance width="224"/>
  <unicode hex="002E"/>
  <outline>
    <contour>
      <point x="15" y="0" type="line"/>
      <point x="209" y="0" type="line"/>
      <point x="209" y="19" type="line"/>
      <point x="15" y="19" type="line"/>
    </contour>
    <contour>
      <point x="30" y="0" type="line"/>
      <point x="176" y="86" type="line"/>
      <point x="164" y="104" type="line"/>
      <point x="15" y="15" type="line"/>
    </contour>
    <contour>
      <point x="194" y="0" type="line"/>
      <point x="209" y="15" type="line"/>
      <point x="179" y="105" type="line"/>
      <point x="167" y="87" type="line"/>
    </contour>
    <contour>
      <point x="15" y="0" type="line"/>
      <point x="34" y="0" type="line"/>
      <point x="34" y="194" type="line"/>
      <point x="15" y="194" type="line"/>
    </contour>
    <contour>
      <point x="164" y="89" type="line"/>
      <point x="180" y="89" type="line"/>
      <point x="180" y="105" type="line"/>
      <point x="164" y="105" type="line"/>
    </contour>
    <contour>
      <point x="190" y="0" type="line"/>
      <point x="209" y="0" type="line"/>
      <point x="209" y="194" type="line"/>
      <point x="190" y="194" type="line"/>
    </contour>
    <contour>
      <point x="165" y="90" type="line"/>
      <point x="177" y="108" type="line"/>
      <point x="30" y="194" type="line"/>
      <point x="15" y="179" type="line"/>
    </contour>
    <contour>
      <point x="19" y="175" type="line"/>
      <point x="209" y="175" type="line"/>
      <point x="209" y="194" type="line"/>
      <point x="19" y="194" type="line"/>
    </contour>
    <contour>
      <point x="179" y="90" type="line"/>
      <point x="208" y="179" type="line"/>
      <point x="193" y="194" type="line"/>
      <point x="167" y="108" type="line"/>
    </contour>
  </outline>
</glyph>
<glyph name="slash" format="2">
  <advance width="352"/>
  <unicode hex="002F"/>
  <outline>
    <contour>
      <point x="18" y="-40" type="line"/>
      <point x="271" y="640" type="line"/>
      <point x="254" y="640" type="line"/>
      <point x="0" y="-40" type="line"/>
    </contour>
    <contour>
      <point x="99" y="-40" type="line"/>
      <point x="352" y="640" type="line"/>
      <point x="334" y="640" type="line"/>
      <point x="81" y="-40" type="line"/>
    </contour>
    <contour>
      <point x="296" y="575" type="line"/>
      <point x="308" y="590" type="line"/>
      <point x="265" y="640" type="line"/>
      <point x="251" y="625" type="line"/>
    </contour>
    <contour>
      <point x="301" y="574" type="line"/>
      <point x="345" y="624" type="line"/>
      <point x="339" y="640" type="line"/>
      <point x="295" y="589" type="line"/>
    </contour>
    <contour>
      <point x="254" y="620" type="line"/>
      <point x="345" y="620" type="line"/>
      <point x="345" y="640" type="line"/>
      <point x="254" y="640" type="line"/>
    </contour>
    <contour>
      <point x="90" y="25" type="line"/>
      <point x="78" y="10" type="line"/>
      <point x="87" y="-40" type="line"/>
      <point x="101" y="-25" type="line"/>
    </contour>
    <contour>
      <point x="85" y="26" type="line"/>
      <point x="7" y="-24" type="line"/>
      <point x="13" y="-40" type="line"/>
      <point x="92" y="11" type="line"/>
    </contour>
    <contour>
      <point x="99" y="-20" type="line"/>
      <point x="8" y="-20" type="line"/>
      <point x="8" y="-40" type="line"/>
      <point x="99" y="-40" type="line"/>
    </contour>
    <contour>
      <point x="92" y="4" type="line"/>
      <point x="312" y="592" type="line"/>
      <point x="297" y="598" type="line"/>
      <point x="77" y="15" type="line"/>
    </contour>
  </outline>
</glyph>
<glyph name="zero" format="2">
  <advance width="440"/>
  <unicode hex="0030"/>
  <outline>
    <contour>
      <point x="416" y="446" type="line"/>
      <point x="430" y="460" type="line"/>
      <point x="320" y="600" type="line"/>
      <point x="306" y="586" type="line"/>
    </contour>
    <contour>
      <point x="120" y="0" type="line"/>
      <point x="134" y="14" type="line"/>
      <point x="24" y="153" type="line"/>
      <point x="10" y="139" type="line"/>
    </contour>
    <contour>
      <point x="138" y="9" type="line"/>
      <point x="213" y="76" type="line"/>
      <point x="194" y="82" type="line"/>
      <point x="119" y="15" type="line"/>
    </contour>
    <contour>
      <point x="26" y="136" type="line"/>
      <point x="155" y="148" type="line"/>
      <point x="149" y="166" type="line"/>
      <point x="20" y="154" type="line"/>
    </contour>
    <contour>
      <point x="120" y="0" type="line"/>
      <point x="320" y="0" type="line"/>
      <point x="320" y="18" type="line"/>
      <point x="120" y="18" type="line"/>
    </contour>
    <contour>
      <point x="195" y="69" type="line"/>
      <point x="209" y="83" type="line"/>
      <point x="154" y="168" type="line"/>
      <point x="140" y="154" type="line"/>
    </contour>
    <contour>
      <point x="212" y="77" type="line"/>
      <point x="208" y="142" type="line"/>
      <point x="190" y="153" type="line"/>
      <point x="194" y="87" type="line"/>
    </contour>
    <contour>
      <point x="195" y="69" type="line"/>
      <point x="315" y="69" type="line"/>
      <point x="325" y="87" type="line"/>
      <point x="195" y="87" type="line"/>
    </contour>
    <contour>
      <point x="10" y="139" type="line"/>
      <point x="30" y="139" type="line"/>
      <point x="30" y="460" type="line"/>
      <point x="10" y="460" type="line"/>
    </contour>
    <contour>
      <point x="157" y="150" type="line"/>
      <point x="196" y="174" type="line"/>
      <point x="190" y="192" type="line"/>
      <point x="151" y="168" type="line"/>
    </contour>
    <contour>
      <point x="304" y="9" type="line"/>
      <point x="321" y="15" type="line"/>
      <point x="329" y="88" type="line"/>
      <point x="312" y="82" type="line"/>
    </contour>
    <contour>
      <point x="192" y="139" type="line"/>
      <point x="209" y="151" type="line"/>
      <point x="198" y="184" type="line"/>
      <point x="180" y="176" type="line"/>
    </contour>
    <contour>
      <point x="192" y="139" type="line"/>
      <point x="248" y="139" type="line"/>
      <point x="248" y="157" type="line"/>
      <point x="192" y="157" type="line"/>
    </contour>
    <contour>
      <point x="314" y="77" type="line"/>
      <point x="330" y="87" type="line"/>
      <point x="248" y="153" type="line"/>
      <point x="232" y="142" type="line"/>
    </contour>
    <contour>
      <point x="140" y="155" type="line"/>
      <point x="160" y="155" type="line"/>
      <point x="160" y="445" type="line"/>
      <point x="140" y="445" type="line"/>
    </contour>
    <contour>
      <point x="248" y="139" type="line"/>
      <point x="260" y="176" type="line"/>
      <point x="242" y="184" type="line"/>
      <point x="231" y="151" type="line"/>
    </contour>
    <contour>
      <point x="315" y="71" type="line"/>
      <point x="390" y="154" type="line"/>
      <point x="376" y="168" type="line"/>
      <point x="311" y="85" type="line"/>
    </contour>
    <contour>
      <point x="320" y="0" type="line"/>
      <point x="430" y="139" type="line"/>
      <point x="416" y="153" type="line"/>
      <point x="306" y="14" type="line"/>
    </contour>
    <contour>
      <point x="373" y="150" type="line"/>
      <point x="379" y="168" type="line"/>
      <point x="250" y="192" type="line"/>
      <point x="244" y="174" type="line"/>
    </contour>
    <contour>
      <point x="180" y="176" type="line"/>
      <point x="200" y="176" type="line"/>
      <point x="200" y="423" type="line"/>
      <point x="180" y="423" type="line"/>
    </contour>
    <contour>
      <point x="149" y="433" type="line"/>
      <point x="155" y="451" type="line"/>
      <point x="26" y="463" type="line"/>
      <point x="20" y="445" type="line"/>
    </contour>
    <contour>
      <point x="414" y="136" type="line"/>
      <point x="420" y="154" type="line"/>
      <point x="381" y="166" type="line"/>
      <point x="375" y="148" type="line"/>
    </contour>
    <contour>
      <point x="240" y="176" type="line"/>
      <point x="260" y="176" type="line"/>
      <point x="260" y="423" type="line"/>
      <point x="240" y="423" type="line"/>
    </contour>
    <contour>
      <point x="190" y="407" type="line"/>
      <point x="196" y="425" type="line"/>
      <point x="157" y="449" type="line"/>
      <point x="151" y="431" type="line"/>
    </contour>
    <contour>
      <point x="24" y="446" type="line"/>
      <point x="134" y="586" type="line"/>
      <point x="120" y="600" type="line"/>
      <point x="10" y="460" type="line"/>
    </contour>
    <contour>
      <point x="154" y="431" type="line"/>
      <point x="209" y="514" type="line"/>
      <point x="195" y="528" type="line"/>
      <point x="140" y="445" type="line"/>
    </contour>
    <contour>
      <point x="198" y="415" type="line"/>
      <point x="209" y="452" type="line"/>
      <point x="192" y="464" type="line"/>
      <point x="180" y="423" type="line"/>
    </contour>
    <contour>
      <point x="370" y="155" type="line"/>
      <point x="390" y="155" type="line"/>
      <point x="390" y="445" type="line"/>
      <point x="370" y="445" type="line"/>
    </contour>
    <contour>
      <point x="192" y="446" type="line"/>
      <point x="208" y="457" type="line"/>
      <point x="206" y="522" type="line"/>
      <point x="190" y="512" type="line"/>
    </contour>
    <contour>
      <point x="192" y="446" type="line"/>
      <point x="248" y="446" type="line"/>
      <point x="248" y="464" type="line"/>
      <point x="192" y="464" type="line"/>
    </contour>
    <contour>
      <point x="242" y="415" type="line"/>
      <point x="260" y="423" type="line"/>
      <point x="248" y="464" type="line"/>
      <point x="231" y="452" type="line"/>
    </contour>
    <contour>
      <point x="196" y="514" type="line"/>
      <point x="216" y="520" type="line"/>
      <point x="138" y="590" type="line"/>
      <point x="118" y="584" type="line"/>
    </contour>
    <contour>
      <point x="250" y="407" type="line"/>
      <point x="379" y="431" type="line"/>
      <point x="373" y="449" type="line"/>
      <point x="244" y="425" type="line"/>
    </contour>
    <contour>
      <point x="195" y="510" type="line"/>
      <point x="325" y="510" type="line"/>
      <point x="325" y="528" type="line"/>
      <point x="195" y="528" type="line"/>
    </contour>
    <contour>
      <point x="410" y="139" type="line"/>
      <point x="430" y="139" type="line"/>
      <point x="430" y="460" type="line"/>
      <point x="410" y="460" type="line"/>
    </contour>
    <contour>
      <point x="244" y="449" type="line"/>
      <point x="330" y="512" type="line"/>
      <point x="314" y="522" type="line"/>
      <point x="228" y="460" type="line"/>
    </contour>
    <contour>
      <point x="376" y="431" type="line"/>
      <point x="390" y="445" type="line"/>
      <point x="325" y="528" type="line"/>
      <point x="311" y="514" type="line"/>
    </contour>
    <contour>
      <point x="120" y="582" type="line"/>
      <point x="320" y="582" type="line"/>
      <point x="320" y="600" type="line"/>
      <point x="120" y="600" type="line"/>
    </contour>
    <contour>
      <point x="381" y="433" type="line"/>
      <point x="420" y="445" type="line"/>
      <point x="414" y="463" type="line"/>
      <point x="375" y="451" type="line"/>
    </contour>
    <contour>
      <point x="333" y="511" type="line"/>
      <point x="322" y="586" type="line"/>
      <point x="305" y="592" type="line"/>
      <point x="316" y="517" type="line"/>
    </contour>
  </outline>
</glyph>
<glyph name="one" format="2">
  <advance width="340"/>
  <unicode hex="0031"/>
  <outline>
    <contour>
      <point x="130" y="0" type="line"/>
      <point x="330" y="0" type="line"/>
      <point x="330" y="20" type="line"/>
      <point x="130" y="20" type="line"/>
    </contour>
    <contour>
      <point x="143" y="0" type="line"/>
      <point x="269" y="112" type="line"/>
      <point x="256" y="125" type="line"/>
      <point x="130" y="13" type="line"/>
    </contour>
    <contour>
      <point x="317" y="0" type="line"/>
      <point x="330" y="13" type="line"/>
      <point x="272" y="125" type="line"/>
      <point x="259" y="112" type="line"/>
    </contour>
    <contour>
      <point x="130" y="3" type="line"/>
      <point x="150" y="3" type="line"/>
      <point x="150" y="350" type="line"/>
      <point x="130" y="350" type="line"/>
    </contour>
    <contour>
      <point x="254" y="110" type="line"/>
      <point x="274" y="110" type="line"/>
      <point x="274" y="530" type="line"/>
      <point x="254" y="530" type="line"/>
    </contour>
    <contour>
      <point x="310" y="0" type="line"/>
      <point x="330" y="0" type="line"/>
      <point x="330" y="600" type="line"/>
      <point x="310" y="600" type="line"/>
    </contour>
    <contour>
      <point x="256" y="515" type="line"/>
      <point x="270" y="528" type="line"/>
      <point x="154" y="600" type="line"/>
      <point x="140" y="587" type="line"/>
    </contour>
    <contour>
      <point x="144" y="580" type="line"/>
      <point x="330" y="580" type="line"/>
      <point x="330" y="600" type="line"/>
      <point x="144" y="600" type="line"/>
    </contour>
    <contour>
      <point x="271" y="515" type="line"/>
      <point x="329" y="587" type="line"/>
      <point x="316" y="600" type="line"/>
      <point x="258" y="528" type="line"/>
    </contour>
    <contour>
      <point x="218" y="543" type="line"/>
      <point x="162" y="427" type="line"/>
      <point x="182" y="421" type="line"/>
      <point x="237" y="532" type="line"/>
    </contour>
    <contour>
      <point x="255" y="528" type="line"/>
      <point x="171" y="340" type="line"/>
      <point x="191" y="334" type="line"/>
      <point x="275" y="523" type="line"/>
    </contour>
    <contour>
      <point x="144" y="600" type="line"/>
      <point x="5" y="334" type="line"/>
      <point x="27" y="334" type="line"/>
      <point x="164" y="595" type="line"/>
    </contour>
    <contour>
      <point x="184" y="438" type="line"/>
      <point x="166" y="424" type="line"/>
      <point x="176" y="341" type="line"/>
      <point x="192" y="354" type="line"/>
    </contour>
    <contour>
      <point x="175" y="441" type="line"/>
      <point x="25" y="353" type="line"/>
      <point x="36" y="338" type="line"/>
      <point x="186" y="425" type="line"/>
    </contour>
    <contour>
      <point x="191" y="354" type="line"/>
      <point x="22" y="354" type="line"/>
      <point x="21" y="334" type="line"/>
      <point x="191" y="334" type="line"/>
    </contour>
  </outline>
</glyph>
<glyph name="five" format="2">
  <advance width="461"/>
  <unicode hex="0035"/>
  <outline>
    <contour>
      <point x="416" y="580" type="line"/>
      <point x="416" y="600" type="line"/>
      <point x="66" y="600" type="line"/>
      <point x="66" y="580" type="line"/>
    </contour>
    <contour>
      <point x="396" y="424" type="line"/>
      <point x="416" y="424" type="line"/>
      <point x="416" y="589" type="line"/>
      <point x="396" y="589" type="line"/>
    </contour>
    <contour>
      <point x="411" y="424" type="line"/>
      <point x="411" y="444" type="line"/>
      <point x="198" y="444" type="line"/>
      <point x="198" y="424" type="line"/>
    </contour>
    <contour>
      <point x="192" y="425" type="line"/>
      <point x="207" y="436" type="line"/>
      <point x="179" y="513" type="line"/>
      <point x="165" y="501" type="line"/>
    </contour>
    <contour>
      <point x="367" y="499" type="line"/>
      <point x="367" y="519" type="line"/>
      <point x="167" y="519" type="line"/>
      <point x="167" y="499" type="line"/>
    </contour>
    <contour>
      <point x="398" y="433" type="line"/>
      <point x="411" y="444" type="line"/>
      <point x="371" y="518" type="line"/>
      <point x="358" y="506" type="line"/>
    </contour>
    <contour>
      <point x="165" y="501" type="line"/>
      <point x="179" y="513" type="line"/>
      <point x="84" y="590" type="line"/>
      <point x="70" y="578" type="line"/>
    </contour>
    <contour>
      <point x="371" y="500" type="line"/>
      <point x="407" y="580" type="line"/>
      <point x="395" y="592" type="line"/>
      <point x="358" y="513" type="line"/>
    </contour>
    <contour>
      <point x="18" y="258" type="line"/>
      <point x="38" y="258" type="line"/>
      <point x="81" y="600" type="line"/>
      <point x="61" y="600" type="line"/>
    </contour>
    <contour>
      <point x="451" y="301" type="line"/>
      <point x="431" y="300" type="line"/>
      <point x="431" y="104" type="line"/>
      <point x="451" y="104" type="line"/>
    </contour>
    <contour>
      <point x="395" y="290" type="line"/>
      <point x="375" y="290" type="line"/>
      <point x="375" y="134" type="line"/>
      <point x="395" y="134" type="line"/>
    </contour>
    <contour>
      <point x="255" y="188" type="line"/>
      <point x="246" y="172" type="line"/>
      <point x="378" y="132" type="line"/>
      <point x="387" y="148" type="line"/>
    </contour>
    <contour>
      <point x="440" y="120" type="line"/>
      <point x="323" y="15" type="line"/>
      <point x="335" y="-1" type="line"/>
      <point x="451" y="104" type="line"/>
    </contour>
    <contour>
      <point x="263" y="242" type="line"/>
      <point x="243" y="242" type="line"/>
      <point x="243" y="174" type="line"/>
      <point x="263" y="174" type="line"/>
    </contour>
    <contour>
      <point x="384" y="149" type="line"/>
      <point x="294" y="90" type="line"/>
      <point x="305" y="75" type="line"/>
      <point x="395" y="134" type="line"/>
    </contour>
    <contour>
      <point x="250" y="190" type="line"/>
      <point x="223" y="168" type="line"/>
      <point x="235" y="152" type="line"/>
      <point x="263" y="174" type="line"/>
    </contour>
    <contour>
      <point x="235" y="173" type="line"/>
      <point x="215" y="173" type="line"/>
      <point x="215" y="152" type="line"/>
      <point x="235" y="152" type="line"/>
    </contour>
    <contour>
      <point x="204" y="203" type="line"/>
      <point x="184" y="203" type="line"/>
      <point x="184" y="175" type="line"/>
      <point x="204" y="175" type="line"/>
    </contour>
    <contour>
      <point x="195" y="190" type="line"/>
      <point x="183" y="175" type="line"/>
      <point x="215" y="152" type="line"/>
      <point x="226" y="167" type="line"/>
    </contour>
    <contour>
      <point x="230" y="166" type="line"/>
      <point x="212" y="172" type="line"/>
      <point x="190" y="88" type="line"/>
      <point x="210" y="88" type="line"/>
    </contour>
    <contour>
      <point x="305" y="95" type="line"/>
      <point x="200" y="95" type="line"/>
      <point x="200" y="75" type="line"/>
      <point x="305" y="75" type="line"/>
    </contour>
    <contour>
      <point x="204" y="218" type="line"/>
      <point x="10" y="218" type="line"/>
      <point x="10" y="198" type="line"/>
      <point x="204" y="198" type="line"/>
    </contour>
    <contour>
      <point x="136" y="157" type="line"/>
      <point x="125" y="142" type="line"/>
      <point x="198" y="76" type="line"/>
      <point x="210" y="92" type="line"/>
    </contour>
    <contour>
      <point x="335" y="19" type="line"/>
      <point x="129" y="19" type="line"/>
      <point x="129" y="-1" type="line"/>
      <point x="335" y="-1" type="line"/>
    </contour>
    <contour>
      <point x="135" y="140" type="line"/>
      <point x="127" y="156" type="line"/>
      <point x="19" y="134" type="line"/>
      <point x="26" y="118" type="line"/>
    </contour>
    <contour>
      <point x="197" y="90" type="line"/>
      <point x="123" y="10" type="line"/>
      <point x="141" y="4" type="line"/>
      <point x="216" y="84" type="line"/>
    </contour>
    <contour>
      <point x="30" y="208" type="line"/>
      <point x="10" y="208" type="line"/>
      <point x="10" y="123" type="line"/>
      <point x="30" y="123" type="line"/>
    </contour>
    <contour>
      <point x="23" y="138" type="line"/>
      <point x="10" y="123" type="line"/>
      <point x="129" y="-1" type="line"/>
      <point x="142" y="14" type="line"/>
    </contour>
    <contour>
      <point x="127" y="156" type="line"/>
      <point x="135" y="140" type="line"/>
      <point x="197" y="173" type="line"/>
      <point x="190" y="189" type="line"/>
    </contour>
    <contour>
      <point x="386" y="149" type="line"/>
      <point x="383" y="130" type="line"/>
      <point x="438" y="101" type="line"/>
      <point x="442" y="120" type="line"/>
    </contour>
    <contour>
      <point x="237" y="168" type="line"/>
      <point x="220" y="162" type="line"/>
      <point x="293" y="80" type="line"/>
      <point x="310" y="86" type="line"/>
    </contour>
    <contour>
      <point x="304" y="93" type="line"/>
      <point x="289" y="83" type="line"/>
      <point x="325" y="8" type="line"/>
      <point x="340" y="18" type="line"/>
    </contour>
    <contour>
      <point x="142" y="337" type="line"/>
      <point x="162" y="337" type="line"/>
      <point x="180" y="519" type="line"/>
      <point x="160" y="519" type="line"/>
    </contour>
    <contour>
      <point x="189" y="399" type="line"/>
      <point x="209" y="399" type="line"/>
      <point x="209" y="444" type="line"/>
      <point x="189" y="444" type="line"/>
    </contour>
    <contour>
      <point x="150" y="354" type="line"/>
      <point x="28" y="273" type="line"/>
      <point x="41" y="261" type="line"/>
      <point x="163" y="342" type="line"/>
    </contour>
    <contour>
      <point x="161" y="350" type="line"/>
      <point x="150" y="337" type="line"/>
      <point x="225" y="263" type="line"/>
      <point x="235" y="276" type="line"/>
    </contour>
    <contour>
      <point x="233" y="258" type="line"/>
      <point x="233" y="276" type="line"/>
      <point x="24" y="276" type="line"/>
      <point x="24" y="258" type="line"/>
    </contour>
    <contour>
      <point x="255" y="226" type="line"/>
      <point x="389" y="275" type="line"/>
      <point x="381" y="292" type="line"/>
      <point x="247" y="243" type="line"/>
    </contour>
    <contour>
      <point x="250" y="229" type="line"/>
      <point x="263" y="242" type="line"/>
      <point x="233" y="276" type="line"/>
      <point x="220" y="263" type="line"/>
    </contour>
    <contour>
      <point x="327" y="393" type="line"/>
      <point x="327" y="413" type="line"/>
      <point x="189" y="413" type="line"/>
      <point x="189" y="393" type="line"/>
    </contour>
    <contour>
      <point x="440" y="285" type="line"/>
      <point x="451" y="301" type="line"/>
      <point x="327" y="413" type="line"/>
      <point x="315" y="397" type="line"/>
    </contour>
    <contour>
      <point x="233" y="258" type="line"/>
      <point x="321" y="342" type="line"/>
      <point x="306" y="350" type="line"/>
      <point x="216" y="265" type="line"/>
    </contour>
    <contour>
      <point x="382" y="275" type="line"/>
      <point x="395" y="290" type="line"/>
      <point x="317" y="357" type="line"/>
      <point x="304" y="341" type="line"/>
    </contour>
    <contour>
      <point x="387" y="274" type="line"/>
      <point x="438" y="285" type="line"/>
      <point x="435" y="304" type="line"/>
      <point x="383" y="293" type="line"/>
    </contour>
    <contour>
      <point x="314" y="357" type="line"/>
      <point x="150" y="357" type="line"/>
      <point x="150" y="337" type="line"/>
      <point x="314" y="337" type="line"/>
    </contour>
    <contour>
      <point x="192" y="409" type="line"/>
      <point x="154" y="360" type="line"/>
      <point x="164" y="346" type="line"/>
      <point x="202" y="395" type="line"/>
    </contour>
    <contour>
      <point x="322" y="409" type="line"/>
      <point x="304" y="352" type="line"/>
      <point x="319" y="341" type="line"/>
      <point x="337" y="399" type="line"/>
    </contour>
  </outline>
</glyph>
<glyph name="nine" format="2">
  <advance width="471"/>
  <unicode hex="0039"/>
  <outline>
    <contour>
      <point x="446" y="306" type="line"/>
      <point x="270" y="-1" type="line"/>
      <point x="290" y="-1" type="line"/>
      <point x="461" y="297" type="line"/>
    </contour>
    <contour>
      <point x="352" y="600" type="line"/>
      <point x="339" y="585" type="line"/>
      <point x="446" y="463" type="line"/>
      <point x="461" y="476" type="line"/>
    </contour>
    <contour>
      <point x="342" y="595" type="line"/>
      <point x="342" y="518" type="line"/>
      <point x="358" y="509" type="line"/>
      <point x="358" y="587" type="line"/>
    </contour>
    <contour>
      <point x="445" y="481" type="line"/>
      <point x="404" y="457" type="line"/>
      <point x="411" y="439" type="line"/>
      <point x="450" y="464" type="line"/>
    </contour>
    <contour>
      <point x="461" y="476" type="line"/>
      <point x="441" y="476" type="line"/>
      <point x="441" y="291" type="line"/>
      <point x="461" y="297" type="line"/>
    </contour>
    <contour>
      <point x="355" y="524" type="line"/>
      <point x="343" y="508" type="line"/>
      <point x="408" y="439" type="line"/>
      <point x="422" y="453" type="line"/>
    </contour>
    <contour>
      <point x="352" y="600" type="line"/>
      <point x="126" y="600" type="line"/>
      <point x="126" y="580" type="line"/>
      <point x="352" y="580" type="line"/>
    </contour>
    <contour>
      <point x="410" y="458" type="line"/>
      <point x="264" y="426" type="line"/>
      <point x="271" y="410" type="line"/>
      <point x="415" y="440" type="line"/>
    </contour>
    <contour>
      <point x="341" y="517" type="line"/>
      <point x="244" y="445" type="line"/>
      <point x="258" y="435" type="line"/>
      <point x="356" y="506" type="line"/>
    </contour>
    <contour>
      <point x="422" y="453" type="line"/>
      <point x="402" y="453" type="line"/>
      <point x="402" y="314" type="line"/>
      <point x="422" y="314" type="line"/>
    </contour>
    <contour>
      <point x="355" y="524" type="line"/>
      <point x="220" y="524" type="line"/>
      <point x="220" y="504" type="line"/>
      <point x="355" y="504" type="line"/>
    </contour>
    <contour>
      <point x="413" y="329" type="line"/>
      <point x="408" y="310" type="line"/>
      <point x="450" y="290" type="line"/>
      <point x="454" y="308" type="line"/>
    </contour>
    <contour>
      <point x="257" y="452" type="line"/>
      <point x="244" y="437" type="line"/>
      <point x="264" y="410" type="line"/>
      <point x="277" y="424" type="line"/>
    </contour>
    <contour>
      <point x="138" y="593" type="line"/>
      <point x="120" y="585" type="line"/>
      <point x="219" y="508" type="line"/>
      <point x="236" y="516" type="line"/>
    </contour>
    <contour>
      <point x="257" y="452" type="line"/>
      <point x="227" y="452" type="line"/>
      <point x="227" y="431" type="line"/>
      <point x="257" y="431" type="line"/>
    </contour>
    <contour>
      <point x="277" y="424" type="line"/>
      <point x="257" y="424" type="line"/>
      <point x="257" y="358" type="line"/>
      <point x="277" y="358" type="line"/>
    </contour>
    <contour>
      <point x="230" y="517" type="line"/>
      <point x="214" y="507" type="line"/>
      <point x="227" y="435" type="line"/>
      <point x="242" y="445" type="line"/>
    </contour>
    <contour>
      <point x="269" y="373" type="line"/>
      <point x="260" y="356" type="line"/>
      <point x="403" y="313" type="line"/>
      <point x="413" y="329" type="line"/>
    </contour>
    <contour>
      <point x="227" y="452" type="line"/>
      <point x="208" y="424" type="line"/>
      <point x="225" y="414" type="line"/>
      <point x="242" y="439" type="line"/>
    </contour>
    <contour>
      <point x="411" y="328" type="line"/>
      <point x="328" y="274" type="line"/>
      <point x="338" y="260" type="line"/>
      <point x="422" y="314" type="line"/>
    </contour>
    <contour>
      <point x="220" y="524" type="line"/>
      <point x="166" y="465" type="line"/>
      <point x="179" y="453" type="line"/>
      <point x="233" y="511" type="line"/>
    </contour>
    <contour>
      <point x="261" y="371" type="line"/>
      <point x="246" y="344" type="line"/>
      <point x="258" y="329" type="line"/>
      <point x="277" y="358" type="line"/>
    </contour>
    <contour>
      <point x="181" y="473" type="line"/>
      <point x="173" y="455" type="line"/>
      <point x="214" y="411" type="line"/>
      <point x="222" y="428" type="line"/>
    </contour>
    <contour>
      <point x="126" y="600" type="line"/>
      <point x="10" y="495" type="line"/>
      <point x="21" y="479" type="line"/>
      <point x="138" y="584" type="line"/>
    </contour>
    <contour>
      <point x="228" y="424" type="line"/>
      <point x="208" y="424" type="line"/>
      <point x="208" y="357" type="line"/>
      <point x="228" y="357" type="line"/>
    </contour>
    <contour>
      <point x="259" y="346" type="line"/>
      <point x="243" y="336" type="line"/>
      <point x="331" y="266" type="line"/>
      <point x="349" y="275" type="line"/>
    </contour>
    <contour>
      <point x="258" y="350" type="line"/>
      <point x="228" y="350" type="line"/>
      <point x="228" y="329" type="line"/>
      <point x="258" y="329" type="line"/>
    </contour>
    <contour>
      <point x="222" y="371" type="line"/>
      <point x="208" y="357" type="line"/>
      <point x="228" y="329" type="line"/>
      <point x="241" y="345" type="line"/>
    </contour>
    <contour>
      <point x="21" y="500" type="line"/>
      <point x="17" y="482" type="line"/>
      <point x="174" y="452" type="line"/>
      <point x="179" y="471" type="line"/>
    </contour>
    <contour>
      <point x="338" y="280" type="line"/>
      <point x="247" y="280" type="line"/>
      <point x="247" y="260" type="line"/>
      <point x="338" y="260" type="line"/>
    </contour>
    <contour>
      <point x="218" y="346" type="line"/>
      <point x="237" y="277" type="line"/>
      <point x="260" y="266" type="line"/>
      <point x="239" y="335" type="line"/>
    </contour>
    <contour>
      <point x="214" y="372" type="line"/>
      <point x="176" y="326" type="line"/>
      <point x="183" y="309" type="line"/>
      <point x="223" y="356" type="line"/>
    </contour>
    <contour>
      <point x="186" y="465" type="line"/>
      <point x="166" y="465" type="line"/>
      <point x="166" y="309" type="line"/>
      <point x="186" y="309" type="line"/>
    </contour>
    <contour>
      <point x="404" y="322" type="line"/>
      <point x="262" y="71" type="line"/>
      <point x="281" y="65" type="line"/>
      <point x="421" y="315" type="line"/>
    </contour>
    <contour>
      <point x="326" y="276" type="line"/>
      <point x="212" y="206" type="line"/>
      <point x="232" y="196" type="line"/>
      <point x="338" y="260" type="line"/>
    </contour>
    <contour>
      <point x="178" y="324" type="line"/>
      <point x="166" y="309" type="line"/>
      <point x="247" y="260" type="line"/>
      <point x="259" y="275" type="line"/>
    </contour>
    <contour>
      <point x="30" y="495" type="line"/>
      <point x="10" y="495" type="line"/>
      <point x="10" y="298" type="line"/>
      <point x="30" y="298" type="line"/>
    </contour>
    <contour>
      <point x="241" y="275" type="line"/>
      <point x="129" y="215" type="line"/>
      <point x="143" y="204" type="line"/>
      <point x="257" y="266" type="line"/>
    </contour>
    <contour>
      <point x="232" y="216" type="line"/>
      <point x="134" y="216" type="line"/>
      <point x="134" y="196" type="line"/>
      <point x="232" y="196" type="line"/>
    </contour>
    <contour>
      <point x="174" y="325" type="line"/>
      <point x="23" y="314" type="line"/>
      <point x="30" y="295" type="line"/>
      <point x="180" y="306" type="line"/>
    </contour>
    <contour>
      <point x="20" y="313" type="line"/>
      <point x="10" y="298" type="line"/>
      <point x="134" y="196" type="line"/>
      <point x="146" y="211" type="line"/>
    </contour>
    <contour>
      <point x="282" y="84" type="line"/>
      <point x="268" y="73" type="line"/>
      <point x="281" y="7" type="line"/>
      <point x="295" y="20" type="line"/>
    </contour>
    <contour>
      <point x="232" y="196" type="line"/>
      <point x="218" y="208" type="line"/>
      <point x="84" y="-1" type="line"/>
      <point x="109" y="-1" type="line"/>
    </contour>
    <contour>
      <point x="275" y="87" type="line"/>
      <point x="104" y="20" type="line"/>
      <point x="113" y="3" type="line"/>
      <point x="281" y="70" type="line"/>
    </contour>
    <contour>
      <point x="287" y="21" type="line"/>
      <point x="105" y="21" type="line"/>
      <point x="105" y="-1" type="line"/>
      <point x="287" y="-1" type="line"/>
    </contour>
  </outline>
</glyph>
<glyph name="at" format="2">
  <advance width="437"/>
  <unicode hex="0040"/>
  <outline>
    <contour>
      <point x="152" y="35" type="line"/>
      <point x="27" y="182" type="line"/>
      <point x="15" y="173" type="line"/>
      <point x="140" y="26" type="line"/>
    </contour>
    <contour>
      <point x="331" y="41" type="line"/>
      <point x="140" y="41" type="line"/>
      <point x="140" y="26" type="line"/>
      <point x="331" y="26" type="line"/>
    </contour>
    <contour>
      <point x="312" y="69" type="line"/>
      <point x="189" y="69" type="line"/>
      <point x="189" y="54" type="line"/>
      <point x="312" y="54" type="line"/>
    </contour>
    <contour>
      <point x="331" y="97" type="line"/>
      <point x="188" y="97" type="line"/>
      <point x="188" y="82" type="line"/>
      <point x="331" y="82" type="line"/>
    </contour>
    <contour>
      <point x="201" y="63" type="line"/>
      <point x="88" y="196" type="line"/>
      <point x="76" y="187" type="line"/>
      <point x="189" y="54" type="line"/>
    </contour>
    <contour>
      <point x="200" y="91" type="line"/>
      <point x="97" y="212" type="line"/>
      <point x="85" y="203" type="line"/>
      <point x="188" y="82" type="line"/>
    </contour>
    <contour>
      <point x="331" y="97" type="line"/>
      <point x="316" y="97" type="line"/>
      <point x="316" y="26" type="line"/>
      <point x="331" y="26" type="line"/>
    </contour>
    <contour>
      <point x="310" y="54" type="line"/>
      <point x="330" y="86" type="line"/>
      <point x="321" y="97" type="line"/>
      <point x="300" y="64" type="line"/>
    </contour>
    <contour>
      <point x="310" y="69" type="line"/>
      <point x="300" y="59" type="line"/>
      <point x="321" y="26" type="line"/>
      <point x="330" y="37" type="line"/>
    </contour>
    <contour>
      <point x="152" y="561" type="line"/>
      <point x="140" y="570" type="line"/>
      <point x="15" y="423" type="line"/>
      <point x="27" y="414" type="line"/>
    </contour>
    <contour>
      <point x="91" y="187" type="line"/>
      <point x="91" y="409" type="line"/>
      <point x="76" y="409" type="line"/>
      <point x="76" y="187" type="line"/>
    </contour>
    <contour>
      <point x="30" y="173" type="line"/>
      <point x="30" y="423" type="line"/>
      <point x="15" y="423" type="line"/>
      <point x="15" y="173" type="line"/>
    </contour>
    <contour>
      <point x="201" y="533" type="line"/>
      <point x="189" y="542" type="line"/>
      <point x="76" y="409" type="line"/>
      <point x="88" y="400" type="line"/>
    </contour>
    <contour>
      <point x="100" y="203" type="line"/>
      <point x="100" y="393" type="line"/>
      <point x="85" y="393" type="line"/>
      <point x="85" y="203" type="line"/>
    </contour>
    <contour>
      <point x="200" y="505" type="line"/>
      <point x="188" y="514" type="line"/>
      <point x="85" y="393" type="line"/>
      <point x="97" y="384" type="line"/>
    </contour>
    <contour>
      <point x="285" y="561" type="line"/>
      <point x="410" y="414" type="line"/>
      <point x="422" y="423" type="line"/>
      <point x="297" y="570" type="line"/>
    </contour>
    <contour>
      <point x="398" y="257" type="line"/>
      <point x="413" y="257" type="line"/>
      <point x="413" y="409" type="line"/>
      <point x="398" y="409" type="line"/>
    </contour>
    <contour>
      <point x="140" y="555" type="line"/>
      <point x="297" y="555" type="line"/>
      <point x="297" y="570" type="line"/>
      <point x="140" y="570" type="line"/>
    </contour>
    <contour>
      <point x="189" y="527" type="line"/>
      <point x="294" y="527" type="line"/>
      <point x="294" y="542" type="line"/>
      <point x="189" y="542" type="line"/>
    </contour>
    <contour>
      <point x="188" y="499" type="line"/>
      <point x="259" y="499" type="line"/>
      <point x="259" y="514" type="line"/>
      <point x="188" y="514" type="line"/>
    </contour>
    <contour>
      <point x="407" y="233" type="line"/>
      <point x="422" y="233" type="line"/>
      <point x="422" y="423" type="line"/>
      <point x="407" y="423" type="line"/>
    </contour>
    <contour>
      <point x="282" y="533" type="line"/>
      <point x="397" y="399" type="line"/>
      <point x="409" y="408" type="line"/>
      <point x="294" y="542" type="line"/>
    </contour>
    <contour>
      <point x="347" y="269" type="line"/>
      <point x="362" y="269" type="line"/>
      <point x="362" y="393" type="line"/>
      <point x="347" y="393" type="line"/>
    </contour>
    <contour>
      <point x="247" y="505" type="line"/>
      <point x="350" y="384" type="line"/>
      <point x="362" y="393" type="line"/>
      <point x="259" y="514" type="line"/>
    </contour>
    <contour>
      <point x="216" y="395" type="line"/>
      <point x="203" y="403" type="line"/>
      <point x="179" y="363" type="line"/>
      <point x="191" y="354" type="line"/>
    </contour>
    <contour>
      <point x="179" y="438" type="line"/>
      <point x="167" y="447" type="line"/>
      <point x="108" y="381" type="line"/>
      <point x="120" y="372" type="line"/>
    </contour>
    <contour>
      <point x="216" y="347" type="line"/>
      <point x="216" y="362" type="line"/>
      <point x="209" y="362" type="line"/>
      <point x="209" y="347" type="line"/>
    </contour>
    <contour>
      <point x="221" y="353" type="line"/>
      <point x="209" y="362" type="line"/>
      <point x="190" y="339" type="line"/>
      <point x="202" y="330" type="line"/>
    </contour>
    <contour>
      <point x="315" y="382" type="line"/>
      <point x="315" y="269" type="line"/>
      <point x="330" y="269" type="line"/>
      <point x="330" y="382" type="line"/>
    </contour>
    <contour>
      <point x="296" y="363" type="line"/>
      <point x="296" y="257" type="line"/>
      <point x="311" y="259" type="line"/>
      <point x="311" y="363" type="line"/>
    </contour>
    <contour>
      <point x="167" y="432" type="line"/>
      <point x="275" y="432" type="line"/>
      <point x="275" y="447" type="line"/>
      <point x="167" y="447" type="line"/>
    </contour>
    <contour>
      <point x="203" y="388" type="line"/>
      <point x="271" y="388" type="line"/>
      <point x="271" y="403" type="line"/>
      <point x="203" y="403" type="line"/>
    </contour>
    <contour>
      <point x="259" y="394" type="line"/>
      <point x="299" y="354" type="line"/>
      <point x="311" y="363" type="line"/>
      <point x="271" y="403" type="line"/>
    </contour>
    <contour>
      <point x="263" y="438" type="line"/>
      <point x="318" y="373" type="line"/>
      <point x="330" y="382" type="line"/>
      <point x="275" y="447" type="line"/>
    </contour>
    <contour>
      <point x="233" y="339" type="line"/>
      <point x="233" y="262" type="line"/>
      <point x="248" y="262" type="line"/>
      <point x="248" y="339" type="line"/>
    </contour>
    <contour>
      <point x="212" y="347" type="line"/>
      <point x="229" y="347" type="line"/>
      <point x="229" y="362" type="line"/>
      <point x="212" y="362" type="line"/>
    </contour>
    <contour>
      <point x="217" y="353" type="line"/>
      <point x="236" y="330" type="line"/>
      <point x="248" y="339" type="line"/>
      <point x="229" y="362" type="line"/>
    </contour>
    <contour>
      <point x="108" y="297" type="line"/>
      <point x="108" y="227" type="line"/>
      <point x="123" y="227" type="line"/>
      <point x="123" y="297" type="line"/>
      <point x="123" y="381" type="line"/>
      <point x="108" y="381" type="line"/>
    </contour>
    <contour>
      <point x="179" y="297" type="line"/>
      <point x="179" y="254" type="line"/>
      <point x="194" y="254" type="line"/>
      <point x="194" y="297" type="line"/>
      <point x="194" y="363" type="line"/>
      <point x="179" y="363" type="line"/>
    </contour>
    <contour>
      <point x="231" y="172" type="line"/>
      <point x="167" y="172" type="line"/>
      <point x="167" y="157" type="line"/>
      <point x="232" y="157" type="line"/>
    </contour>
    <contour>
      <point x="263" y="227" type="line"/>
      <point x="200" y="227" type="line"/>
      <point x="200" y="212" type="line"/>
      <point x="263" y="212" type="line"/>
    </contour>
    <contour>
      <point x="212" y="221" type="line"/>
      <point x="191" y="263" type="line"/>
      <point x="179" y="254" type="line"/>
      <point x="200" y="212" type="line"/>
    </contour>
    <contour>
      <point x="179" y="166" type="line"/>
      <point x="120" y="236" type="line"/>
      <point x="108" y="227" type="line"/>
      <point x="167" y="157" type="line"/>
    </contour>
    <contour>
      <point x="190" y="302" type="line"/>
      <point x="190" y="280" type="line"/>
      <point x="205" y="280" type="line"/>
      <point x="205" y="302" type="line"/>
      <point x="205" y="339" type="line"/>
      <point x="190" y="339" type="line"/>
    </contour>
    <contour>
      <point x="246" y="272" type="line"/>
      <point x="209" y="272" type="line"/>
      <point x="209" y="257" type="line"/>
      <point x="246" y="257" type="line"/>
    </contour>
    <contour>
      <point x="221" y="266" type="line"/>
      <point x="202" y="289" type="line"/>
      <point x="190" y="280" type="line"/>
      <point x="209" y="257" type="line"/>
    </contour>
    <contour>
      <point x="362" y="277" type="line"/>
      <point x="315" y="277" type="line"/>
      <point x="315" y="262" type="line"/>
      <point x="362" y="262" type="line"/>
    </contour>
    <contour>
      <point x="233" y="265" type="line"/>
      <point x="254" y="217" type="line"/>
      <point x="269" y="217" type="line"/>
      <point x="248" y="265" type="line"/>
    </contour>
    <contour>
      <point x="200" y="58" type="line"/>
      <point x="188" y="67" type="line"/>
      <point x="135" y="36" type="line"/>
      <point x="147" y="27" type="line"/>
    </contour>
    <contour>
      <point x="199" y="88" type="line"/>
      <point x="187" y="97" type="line"/>
      <point x="186" y="66" type="line"/>
      <point x="198" y="57" type="line"/>
    </contour>
    <contour>
      <point x="203" y="536" type="line"/>
      <point x="150" y="567" type="line"/>
      <point x="138" y="558" type="line"/>
      <point x="191" y="527" type="line"/>
    </contour>
    <contour>
      <point x="202" y="506" type="line"/>
      <point x="201" y="537" type="line"/>
      <point x="189" y="528" type="line"/>
      <point x="190" y="497" type="line"/>
    </contour>
    <contour>
      <point x="286" y="536" type="line"/>
      <point x="299" y="527" type="line"/>
      <point x="299" y="558" type="line"/>
      <point x="286" y="567" type="line"/>
    </contour>
    <contour>
      <point x="244" y="506" type="line"/>
      <point x="256" y="497" type="line"/>
      <point x="299" y="528" type="line"/>
      <point x="287" y="537" type="line"/>
    </contour>
    <contour>
      <point x="217" y="219" type="line"/>
      <point x="202" y="224" type="line"/>
      <point x="164" y="167" type="line"/>
      <point x="179" y="162" type="line"/>
    </contour>
    <contour>
      <point x="220" y="265" type="line"/>
      <point x="205" y="270" type="line"/>
      <point x="202" y="222" type="line"/>
      <point x="217" y="217" type="line"/>
    </contour>
    <contour>
      <point x="218" y="397" type="line"/>
      <point x="179" y="442" type="line"/>
      <point x="164" y="437" type="line"/>
      <point x="203" y="392" type="line"/>
    </contour>
    <contour>
      <point x="217" y="353" type="line"/>
      <point x="218" y="399" type="line"/>
      <point x="203" y="394" type="line"/>
      <point x="202" y="348" type="line"/>
    </contour>
    <contour>
      <point x="258" y="396" type="line"/>
      <point x="272" y="391" type="line"/>
      <point x="275" y="437" type="line"/>
      <point x="260" y="442" type="line"/>
    </contour>
    <contour>
      <point x="214" y="350" type="line"/>
      <point x="229" y="345" type="line"/>
      <point x="272" y="393" type="line"/>
      <point x="258" y="398" type="line"/>
    </contour>
    <contour>
      <point x="269" y="217" type="line"/>
      <point x="254" y="222" type="line"/>
      <point x="216" y="162" type="line"/>
      <point x="232" y="157" type="line"/>
    </contour>
    <contour>
      <point x="284" y="172" type="line"/>
      <point x="284" y="157" type="line"/>
      <point x="381" y="157" type="line"/>
      <point x="381" y="172" type="line"/>
    </contour>
    <contour>
      <point x="251" y="217" type="line"/>
      <point x="284" y="157" type="line"/>
      <point x="299" y="163" type="line"/>
      <point x="266" y="223" type="line"/>
    </contour>
    <contour>
      <point x="422" y="233" type="line"/>
      <point x="407" y="238" type="line"/>
      <point x="366" y="162" type="line"/>
      <point x="381" y="157" type="line"/>
    </contour>
    <contour>
      <point x="203" y="280" type="line"/>
      <point x="193" y="293" type="line"/>
      <point x="182" y="267" type="line"/>
      <point x="192" y="254" type="line"/>
    </contour>
    <contour>
      <point x="190" y="253" type="line"/>
      <point x="180" y="266" type="line"/>
      <point x="108" y="236" type="line"/>
      <point x="118" y="223" type="line"/>
    </contour>
    <contour>
      <point x="204" y="341" type="line"/>
      <point x="194" y="366" type="line"/>
      <point x="184" y="353" type="line"/>
      <point x="194" y="328" type="line"/>
    </contour>
    <contour>
      <point x="192" y="367" type="line"/>
      <point x="118" y="388" type="line"/>
      <point x="108" y="375" type="line"/>
      <point x="182" y="354" type="line"/>
    </contour>
    <contour>
      <point x="234" y="341" type="line"/>
      <point x="244" y="328" type="line"/>
      <point x="306" y="353" type="line"/>
      <point x="296" y="366" type="line"/>
    </contour>
    <contour>
      <point x="298" y="367" type="line"/>
      <point x="308" y="354" type="line"/>
      <point x="330" y="375" type="line"/>
      <point x="320" y="389" type="line"/>
    </contour>
    <contour>
      <point x="98" y="204" type="line"/>
      <point x="89" y="216" type="line"/>
      <point x="80" y="198" type="line"/>
      <point x="89" y="186" type="line"/>
    </contour>
    <contour>
      <point x="88" y="185" type="line"/>
      <point x="78" y="197" type="line"/>
      <point x="17" y="180" type="line"/>
      <point x="27" y="167" type="line"/>
    </contour>
    <contour>
      <point x="99" y="393" type="line"/>
      <point x="90" y="411" type="line"/>
      <point x="81" y="399" type="line"/>
      <point x="90" y="381" type="line"/>
    </contour>
    <contour>
      <point x="89" y="412" type="line"/>
      <point x="28" y="430" type="line"/>
      <point x="18" y="417" type="line"/>
      <point x="79" y="400" type="line"/>
    </contour>
    <contour>
      <point x="348" y="393" type="line"/>
      <point x="357" y="381" type="line"/>
      <point x="408" y="399" type="line"/>
      <point x="399" y="411" type="line"/>
    </contour>
    <contour>
      <point x="400" y="412" type="line"/>
      <point x="410" y="400" type="line"/>
      <point x="419" y="417" type="line"/>
      <point x="409" y="430" type="line"/>
    </contour>
    <contour>
      <point x="390" y="227" type="line"/>
      <point x="328" y="227" type="line"/>
      <point x="328" y="212" type="line"/>
      <point x="390" y="212" type="line"/>
    </contour>
    <contour>
      <point x="330" y="265" type="line"/>
      <point x="316" y="270" type="line"/>
      <point x="319" y="222" type="line"/>
      <point x="334" y="217" type="line"/>
    </contour>
    <contour>
      <point x="345" y="265" type="line"/>
      <point x="380" y="217" type="line"/>
      <point x="394" y="222" type="line"/>
      <point x="359" y="270" type="line"/>
    </contour>
    <contour>
      <point x="296" y="257" type="line"/>
      <point x="323" y="218" type="line"/>
      <point x="334" y="228" type="line"/>
      <point x="308" y="265" type="line"/>
    </contour>
    <contour>
      <point x="413" y="257" type="line"/>
      <point x="401" y="264" type="line"/>
      <point x="378" y="223" type="line"/>
      <point x="390" y="212" type="line"/>
    </contour>
    <contour>
      <point x="334" y="217" type="line"/>
      <point x="319" y="222" type="line"/>
      <point x="278" y="167" type="line"/>
      <point x="293" y="162" type="line"/>
    </contour>
    <contour>
      <point x="380" y="219" type="line"/>
      <point x="365" y="162" type="line"/>
      <point x="380" y="167" type="line"/>
      <point x="394" y="229" type="line"/>
    </contour>
    <contour>
      <point x="312" y="255" type="line"/>
      <point x="302" y="267" type="line"/>
      <point x="260" y="225" type="line"/>
      <point x="270" y="213" type="line"/>
    </contour>
    <contour>
      <point x="308" y="272" type="line"/>
      <point x="240" y="272" type="line"/>
      <point x="240" y="257" type="line"/>
      <point x="308" y="257" type="line"/>
    </contour>
    <contour>
      <point x="300" y="270" type="line"/>
      <point x="305" y="256" type="line"/>
      <point x="327" y="268" type="line"/>
      <point x="324" y="281" type="line"/>
    </contour>
    <contour>
      <point x="408" y="269" type="line"/>
      <point x="352" y="278" type="line"/>
      <point x="349" y="265" type="line"/>
      <point x="404" y="255" type="line"/>
    </contour>
    <contour>
      <point x="401" y="257" type="line"/>
      <point x="411" y="229" type="line"/>
      <point x="419" y="242" type="line"/>
      <point x="409" y="270" type="line"/>
    </contour>
  </outline>
</glyph>
<glyph name="A" format="2">
  <advance width="559"/>
  <unicode hex="0041"/>
  <anchor x="295" y="0" name="bottom"/>
  <anchor x="532" y="18" name="ogonek"/>
  <anchor x="275" y="600" name="top"/>
  <outline>
    <contour>
      <point x="537" y="0" type="line"/>
      <point x="557" y="0" type="line"/>
      <point x="396" y="600" type="line"/>
      <point x="377" y="595" type="line"/>
    </contour>
    <contour>
      <point x="23" y="1" type="line"/>
      <point x="196" y="80" type="line"/>
      <point x="181" y="93" type="line"/>
      <point x="9" y="15" type="line"/>
    </contour>
    <contour>
      <point x="8" y="0" type="line"/>
      <point x="222" y="0" type="line"/>
      <point x="222" y="20" type="line"/>
      <point x="8" y="20" type="line"/>
    </contour>
    <contour>
      <point x="211" y="1" type="line"/>
      <point x="225" y="15" type="line"/>
      <point x="200" y="93" type="line"/>
      <point x="185" y="80" type="line"/>
    </contour>
    <contour>
      <point x="222" y="0" type="line"/>
      <point x="250" y="95" type="line"/>
      <point x="231" y="100" type="line"/>
      <point x="203" y="5" type="line"/>
    </contour>
    <contour>
      <point x="228" y="80" type="line"/>
      <point x="245" y="94" type="line"/>
      <point x="224" y="172" type="line"/>
      <point x="206" y="159" type="line"/>
    </contour>
    <contour>
      <point x="231" y="80" type="line"/>
      <point x="340" y="80" type="line"/>
      <point x="350" y="100" type="line"/>
      <point x="231" y="100" type="line"/>
    </contour>
    <contour>
      <point x="213" y="158" type="line"/>
      <point x="272" y="200" type="line"/>
      <point x="263" y="218" type="line"/>
      <point x="204" y="176" type="line"/>
    </contour>
    <contour>
      <point x="2" y="0" type="line"/>
      <point x="22" y="0" type="line"/>
      <point x="181" y="595" type="line"/>
      <point x="162" y="600" type="line"/>
    </contour>
    <contour>
      <point x="344" y="0" type="line"/>
      <point x="363" y="5" type="line"/>
      <point x="342" y="100" type="line"/>
      <point x="323" y="95" type="line"/>
    </contour>
    <contour>
      <point x="217" y="162" type="line"/>
      <point x="471" y="162" type="line"/>
      <point x="471" y="182" type="line"/>
      <point x="217" y="182" type="line"/>
    </contour>
    <contour>
      <point x="197" y="80" type="line"/>
      <point x="305" y="515" type="line"/>
      <point x="286" y="520" type="line"/>
      <point x="178" y="85" type="line"/>
    </contour>
    <contour>
      <point x="356" y="1" type="line"/>
      <point x="496" y="99" type="line"/>
      <point x="480" y="112" type="line"/>
      <point x="342" y="15" type="line"/>
    </contour>
    <contour>
      <point x="344" y="0" type="line"/>
      <point x="551" y="0" type="line"/>
      <point x="551" y="20" type="line"/>
      <point x="344" y="20" type="line"/>
    </contour>
    <contour>
      <point x="263" y="198" type="line"/>
      <point x="311" y="198" type="line"/>
      <point x="311" y="218" type="line"/>
      <point x="263" y="218" type="line"/>
    </contour>
    <contour>
      <point x="337" y="81" type="line"/>
      <point x="480" y="166" type="line"/>
      <point x="464" y="178" type="line"/>
      <point x="323" y="95" type="line"/>
    </contour>
    <contour>
      <point x="273" y="203" type="line"/>
      <point x="297" y="343" type="line"/>
      <point x="278" y="348" type="line"/>
      <point x="254" y="209" type="line"/>
    </contour>
    <contour>
      <point x="303" y="201" type="line"/>
      <point x="322" y="207" type="line"/>
      <point x="296" y="342" type="line"/>
      <point x="277" y="337" type="line"/>
    </contour>
    <contour>
      <point x="470" y="165" type="line"/>
      <point x="472" y="182" type="line"/>
      <point x="311" y="218" type="line"/>
      <point x="302" y="200" type="line"/>
    </contour>
    <contour>
      <point x="538" y="2" type="line"/>
      <point x="550" y="18" type="line"/>
      <point x="491" y="124" type="line"/>
      <point x="478" y="108" type="line"/>
    </contour>
    <contour>
      <point x="277" y="332" type="line"/>
      <point x="296" y="338" type="line"/>
      <point x="305" y="511" type="line"/>
      <point x="286" y="506" type="line"/>
    </contour>
    <contour>
      <point x="484" y="94" type="line"/>
      <point x="503" y="99" type="line"/>
      <point x="388" y="520" type="line"/>
      <point x="369" y="515" type="line"/>
    </contour>
    <contour>
      <point x="286" y="503" type="line"/>
      <point x="302" y="516" type="line"/>
      <point x="176" y="596" type="line"/>
      <point x="160" y="584" type="line"/>
    </contour>
    <contour>
      <point x="296" y="333" type="line"/>
      <point x="391" y="508" type="line"/>
      <point x="372" y="513" type="line"/>
      <point x="277" y="339" type="line"/>
    </contour>
    <contour>
      <point x="286" y="500" type="line"/>
      <point x="388" y="500" type="line"/>
      <point x="388" y="520" type="line"/>
      <point x="286" y="520" type="line"/>
    </contour>
    <contour>
      <point x="162" y="580" type="line"/>
      <point x="396" y="580" type="line"/>
      <point x="396" y="600" type="line"/>
      <point x="162" y="600" type="line"/>
    </contour>
    <contour>
      <point x="390" y="501" type="line"/>
      <point x="398" y="581" type="line"/>
      <point x="381" y="596" type="line"/>
      <point x="372" y="517" type="line"/>
    </contour>
  </outline>
</glyph>
<glyph name="C" format="2">
  <advance width="508"/>
  <unicode hex="0043"/>
  <anchor x="254" y="0" name="bottom"/>
  <anchor x="254" y="600" name="top"/>
  <outline>
    <contour>
      <point x="343" y="0" type="line"/>
      <point x="501" y="137" type="line"/>
      <point x="485" y="151" type="line"/>
      <point x="326" y="13" type="line"/>
    </contour>
    <contour>
      <point x="160" y="0" type="line"/>
      <point x="175" y="15" type="line"/>
      <point x="20" y="163" type="line"/>
      <point x="5" y="148" type="line"/>
    </contour>
    <contour>
      <point x="22" y="150" type="line"/>
      <point x="184" y="164" type="line"/>
      <point x="178" y="181" type="line"/>
      <point x="16" y="167" type="line"/>
    </contour>
    <contour>
      <point x="160" y="0" type="line"/>
      <point x="343" y="0" type="line"/>
      <point x="343" y="19" type="line"/>
      <point x="160" y="19" type="line"/>
    </contour>
    <contour>
      <point x="177" y="10" type="line"/>
      <point x="289" y="85" type="line"/>
      <point x="270" y="95" type="line"/>
      <point x="158" y="20" type="line"/>
    </contour>
    <contour>
      <point x="5" y="148" type="line"/>
      <point x="26" y="148" type="line"/>
      <point x="26" y="464" type="line"/>
      <point x="5" y="464" type="line"/>
    </contour>
    <contour>
      <point x="268" y="76" type="line"/>
      <point x="286" y="89" type="line"/>
      <point x="182" y="182" type="line"/>
      <point x="169" y="168" type="line"/>
    </contour>
    <contour>
      <point x="182" y="164" type="line"/>
      <point x="234" y="197" type="line"/>
      <point x="228" y="215" type="line"/>
      <point x="176" y="183" type="line"/>
    </contour>
    <contour>
      <point x="268" y="76" type="line"/>
      <point x="377" y="76" type="line"/>
      <point x="376" y="97" type="line"/>
      <point x="268" y="97" type="line"/>
    </contour>
    <contour>
      <point x="285" y="87" type="line"/>
      <point x="263" y="169" type="line"/>
      <point x="242" y="180" type="line"/>
      <point x="265" y="89" type="line"/>
    </contour>
    <contour>
      <point x="169" y="168" type="line"/>
      <point x="189" y="168" type="line"/>
      <point x="189" y="442" type="line"/>
      <point x="169" y="442" type="line"/>
    </contour>
    <contour>
      <point x="310" y="12" type="line"/>
      <point x="336" y="18" type="line"/>
      <point x="394" y="100" type="line"/>
      <point x="369" y="93" type="line"/>
    </contour>
    <contour>
      <point x="251" y="164" type="line"/>
      <point x="266" y="177" type="line"/>
      <point x="227" y="212" type="line"/>
      <point x="211" y="199" type="line"/>
    </contour>
    <contour>
      <point x="251" y="164" type="line"/>
      <point x="301" y="164" type="line"/>
      <point x="301" y="183" type="line"/>
      <point x="251" y="183" type="line"/>
    </contour>
    <contour>
      <point x="176" y="429" type="line"/>
      <point x="182" y="446" type="line"/>
      <point x="20" y="459" type="line"/>
      <point x="14" y="442" type="line"/>
    </contour>
    <contour>
      <point x="364" y="83" type="line"/>
      <point x="379" y="94" type="line"/>
      <point x="302" y="177" type="line"/>
      <point x="287" y="166" type="line"/>
    </contour>
    <contour>
      <point x="213" y="199" type="line"/>
      <point x="234" y="199" type="line"/>
      <point x="234" y="422" type="line"/>
      <point x="213" y="422" type="line"/>
    </contour>
    <contour>
      <point x="377" y="76" type="line"/>
      <point x="467" y="172" type="line"/>
      <point x="452" y="183" type="line"/>
      <point x="362" y="87" type="line"/>
    </contour>
    <contour>
      <point x="302" y="162" type="line"/>
      <point x="343" y="201" type="line"/>
      <point x="328" y="216" type="line"/>
      <point x="287" y="177" type="line"/>
    </contour>
    <contour>
      <point x="226" y="405" type="line"/>
      <point x="232" y="424" type="line"/>
      <point x="182" y="446" type="line"/>
      <point x="176" y="426" type="line"/>
    </contour>
    <contour>
      <point x="322" y="201" type="line"/>
      <point x="344" y="201" type="line"/>
      <point x="344" y="279" type="line"/>
      <point x="322" y="279" type="line"/>
    </contour>
    <contour>
      <point x="20" y="449" type="line"/>
      <point x="156" y="585" type="line"/>
      <point x="141" y="600" type="line"/>
      <point x="5" y="464" type="line"/>
    </contour>
    <contour>
      <point x="322" y="259" type="line"/>
      <point x="501" y="259" type="line"/>
      <point x="501" y="279" type="line"/>
      <point x="322" y="279" type="line"/>
    </contour>
    <contour>
      <point x="183" y="429" type="line"/>
      <point x="288" y="519" type="line"/>
      <point x="271" y="531" type="line"/>
      <point x="170" y="445" type="line"/>
    </contour>
    <contour>
      <point x="455" y="171" type="line"/>
      <point x="459" y="188" type="line"/>
      <point x="327" y="214" type="line"/>
      <point x="321" y="196" type="line"/>
    </contour>
    <contour>
      <point x="455" y="177" type="line"/>
      <point x="465" y="192" type="line"/>
      <point x="344" y="270" type="line"/>
      <point x="330" y="257" type="line"/>
    </contour>
    <contour>
      <point x="467" y="172" type="line"/>
      <point x="483" y="258" type="line"/>
      <point x="469" y="271" type="line"/>
      <point x="450" y="181" type="line"/>
    </contour>
    <contour>
      <point x="480" y="129" type="line"/>
      <point x="486" y="149" type="line"/>
      <point x="465" y="195" type="line"/>
      <point x="456" y="175" type="line"/>
    </contour>
    <contour>
      <point x="228" y="407" type="line"/>
      <point x="267" y="439" type="line"/>
      <point x="252" y="454" type="line"/>
      <point x="213" y="422" type="line"/>
    </contour>
    <contour>
      <point x="480" y="136" type="line"/>
      <point x="501" y="136" type="line"/>
      <point x="501" y="279" type="line"/>
      <point x="480" y="279" type="line"/>
    </contour>
    <contour>
      <point x="240" y="432" type="line"/>
      <point x="265" y="440" type="line"/>
      <point x="297" y="528" type="line"/>
      <point x="274" y="523" type="line"/>
    </contour>
    <contour>
      <point x="321" y="343" type="line"/>
      <point x="343" y="343" type="line"/>
      <point x="343" y="420" type="line"/>
      <point x="321" y="420" type="line"/>
    </contour>
    <contour>
      <point x="252" y="435" type="line"/>
      <point x="308" y="435" type="line"/>
      <point x="308" y="454" type="line"/>
      <point x="252" y="454" type="line"/>
    </contour>
    <contour>
      <point x="279" y="514" type="line"/>
      <point x="294" y="527" type="line"/>
      <point x="153" y="594" type="line"/>
      <point x="134" y="587" type="line"/>
    </contour>
    <contour>
      <point x="327" y="404" type="line"/>
      <point x="343" y="420" type="line"/>
      <point x="308" y="454" type="line"/>
      <point x="293" y="439" type="line"/>
    </contour>
    <contour>
      <point x="322" y="343" type="line"/>
      <point x="502" y="343" type="line"/>
      <point x="502" y="363" type="line"/>
      <point x="322" y="363" type="line"/>
    </contour>
    <contour>
      <point x="342" y="353" type="line"/>
      <point x="470" y="425" type="line"/>
      <point x="454" y="435" type="line"/>
      <point x="326" y="364" type="line"/>
    </contour>
    <contour>
      <point x="278" y="513" type="line"/>
      <point x="382" y="513" type="line"/>
      <point x="382" y="533" type="line"/>
      <point x="278" y="533" type="line"/>
    </contour>
    <contour>
      <point x="311" y="437" type="line"/>
      <point x="390" y="514" type="line"/>
      <point x="374" y="525" type="line"/>
      <point x="299" y="450" type="line"/>
    </contour>
    <contour>
      <point x="331" y="409" type="line"/>
      <point x="465" y="427" type="line"/>
      <point x="459" y="443" type="line"/>
      <point x="325" y="425" type="line"/>
    </contour>
    <contour>
      <point x="141" y="580" type="line"/>
      <point x="355" y="580" type="line"/>
      <point x="355" y="600" type="line"/>
      <point x="141" y="600" type="line"/>
    </contour>
    <contour>
      <point x="482" y="350" type="line"/>
      <point x="497" y="361" type="line"/>
      <point x="468" y="441" type="line"/>
      <point x="453" y="430" type="line"/>
    </contour>
    <contour>
      <point x="455" y="431" type="line"/>
      <point x="468" y="441" type="line"/>
      <point x="384" y="530" type="line"/>
      <point x="375" y="511" type="line"/>
    </contour>
    <contour>
      <point x="396" y="513" type="line"/>
      <point x="348" y="586" type="line"/>
      <point x="325" y="594" type="line"/>
      <point x="371" y="523" type="line"/>
    </contour>
    <contour>
      <point x="467" y="426" type="line"/>
      <point x="484" y="465" type="line"/>
      <point x="475" y="483" type="line"/>
      <point x="458" y="444" type="line"/>
    </contour>
    <contour>
      <point x="481" y="344" type="line"/>
      <point x="503" y="344" type="line"/>
      <point x="503" y="475" type="line"/>
      <point x="481" y="475" type="line"/>
    </contour>
    <contour>
      <point x="488" y="459" type="line"/>
      <point x="503" y="474" type="line"/>
      <point x="355" y="600" type="line"/>
      <point x="340" y="585" type="line"/>
    </contour>
  </outline>
</glyph>
<glyph name="E" format="2">
  <advance width="425"/>
  <unicode hex="0045"/>
  <anchor x="225" y="0" name="bottom"/>
  <anchor x="401" y="10" name="ogonek"/>
  <anchor x="225" y="600" name="top"/>
  <anchor x="25" y="600" name="topleft"/>
  <outline>
    <contour>
      <point x="23" y="0" type="line"/>
      <point x="185" y="89" type="line"/>
      <point x="172" y="102" type="line"/>
      <point x="10" y="13" type="line"/>
    </contour>
    <contour>
      <point x="10" y="0" type="line"/>
      <point x="30" y="0" type="line"/>
      <point x="30" y="600" type="line"/>
      <point x="10" y="600" type="line"/>
    </contour>
    <contour>
      <point x="170" y="97" type="line"/>
      <point x="190" y="97" type="line"/>
      <point x="190" y="521" type="line"/>
      <point x="170" y="521" type="line"/>
    </contour>
    <contour>
      <point x="215" y="225" type="line"/>
      <point x="230" y="239" type="line"/>
      <point x="193" y="322" type="line"/>
      <point x="176" y="309" type="line"/>
    </contour>
    <contour>
      <point x="220" y="225" type="line"/>
      <point x="340" y="225" type="line"/>
      <point x="340" y="245" type="line"/>
      <point x="220" y="245" type="line"/>
    </contour>
    <contour>
      <point x="192" y="317" type="line"/>
      <point x="233" y="370" type="line"/>
      <point x="220" y="385" type="line"/>
      <point x="177" y="328" type="line"/>
    </contour>
    <contour>
      <point x="172" y="505" type="line"/>
      <point x="185" y="520" type="line"/>
      <point x="29" y="596" type="line"/>
      <point x="16" y="581" type="line"/>
    </contour>
    <contour>
      <point x="190" y="307" type="line"/>
      <point x="320" y="307" type="line"/>
      <point x="320" y="327" type="line"/>
      <point x="190" y="327" type="line"/>
    </contour>
    <contour>
      <point x="220" y="365" type="line"/>
      <point x="340" y="365" type="line"/>
      <point x="340" y="385" type="line"/>
      <point x="220" y="385" type="line"/>
    </contour>
    <contour>
      <point x="330" y="225" type="line"/>
      <point x="343" y="237" type="line"/>
      <point x="315" y="327" type="line"/>
      <point x="300" y="316" type="line"/>
    </contour>
    <contour>
      <point x="317" y="307" type="line"/>
      <point x="343" y="370" type="line"/>
      <point x="330" y="385" type="line"/>
      <point x="300" y="316" type="line"/>
    </contour>
    <contour>
      <point x="330" y="225" type="line"/>
      <point x="350" y="225" type="line"/>
      <point x="350" y="385" type="line"/>
      <point x="330" y="385" type="line"/>
    </contour>
    <contour>
      <point x="210" y="160" type="line"/>
      <point x="230" y="160" type="line"/>
      <point x="230" y="245" type="line"/>
      <point x="210" y="245" type="line"/>
    </contour>
    <contour>
      <point x="20" y="0" type="line"/>
      <point x="410" y="0" type="line"/>
      <point x="410" y="20" type="line"/>
      <point x="20" y="20" type="line"/>
    </contour>
    <contour>
      <point x="191" y="95" type="line"/>
      <point x="229" y="165" type="line"/>
      <point x="216" y="180" type="line"/>
      <point x="176" y="106" type="line"/>
    </contour>
    <contour>
      <point x="176" y="87" type="line"/>
      <point x="375" y="87" type="line"/>
      <point x="375" y="107" type="line"/>
      <point x="176" y="107" type="line"/>
    </contour>
    <contour>
      <point x="216" y="160" type="line"/>
      <point x="410" y="160" type="line"/>
      <point x="410" y="180" type="line"/>
      <point x="216" y="180" type="line"/>
    </contour>
    <contour>
      <point x="400" y="10" type="line"/>
      <point x="413" y="22" type="line"/>
      <point x="375" y="107" type="line"/>
      <point x="360" y="96" type="line"/>
    </contour>
    <contour>
      <point x="377" y="87" type="line"/>
      <point x="413" y="165" type="line"/>
      <point x="400" y="180" type="line"/>
      <point x="360" y="96" type="line"/>
    </contour>
    <contour>
      <point x="400" y="0" type="line"/>
      <point x="420" y="0" type="line"/>
      <point x="420" y="180" type="line"/>
      <point x="400" y="180" type="line"/>
    </contour>
    <contour>
      <point x="20" y="600" type="line"/>
      <point x="20" y="580" type="line"/>
      <point x="410" y="580" type="line"/>
      <point x="410" y="600" type="line"/>
    </contour>
    <contour>
      <point x="191" y="515" type="line"/>
      <point x="176" y="504" type="line"/>
      <point x="213" y="422" type="line"/>
      <point x="229" y="435" type="line"/>
    </contour>
    <contour>
      <point x="176" y="523" type="line"/>
      <point x="176" y="503" type="line"/>
      <point x="384" y="503" type="line"/>
      <point x="384" y="523" type="line"/>
    </contour>
    <contour>
      <point x="210" y="440" type="line"/>
      <point x="210" y="420" type="line"/>
      <point x="410" y="420" type="line"/>
      <point x="410" y="440" type="line"/>
    </contour>
    <contour>
      <point x="396" y="593" type="line"/>
      <point x="369" y="520" type="line"/>
      <point x="384" y="506" type="line"/>
      <point x="413" y="580" type="line"/>
    </contour>
    <contour>
      <point x="386" y="522" type="line"/>
      <point x="368" y="513" type="line"/>
      <point x="400" y="427" type="line"/>
      <point x="413" y="442" type="line"/>
    </contour>
    <contour>
      <point x="400" y="600" type="line"/>
      <point x="400" y="420" type="line"/>
      <point x="420" y="420" type="line"/>
      <point x="420" y="600" type="line"/>
    </contour>
    <contour>
      <point x="210" y="365" type="line"/>
      <point x="230" y="365" type="line"/>
      <point x="230" y="438" type="line"/>
      <point x="210" y="438" type="line"/>
    </contour>
  </outline>
</glyph>
<glyph name="G" format="2">
  <advance width="515"/>
  <unicode hex="0047"/>
  <anchor x="255" y="0" name="bottom"/>
  <anchor x="255" y="600" name="top"/>
  <outline>
    <contour>
      <point x="484" y="462" type="line"/>
      <point x="484" y="339" type="line"/>
      <point x="504" y="339" type="line"/>
      <point x="504" y="462" type="line"/>
    </contour>
    <contour>
      <point x="504" y="339" type="line"/>
      <point x="484" y="339" type="line"/>
    </contour>
    <contour>
      <point x="359" y="592" type="line"/>
      <point x="491" y="447" type="line"/>
      <point x="504" y="462" type="line"/>
      <point x="373" y="600" type="line"/>
    </contour>
    <contour>
      <point x="504" y="462" type="line"/>
      <point x="491" y="447" type="line"/>
    </contour>
    <contour>
      <point x="299" y="339" type="line"/>
      <point x="494" y="339" type="line"/>
      <point x="494" y="359" type="line"/>
      <point x="299" y="359" type="line"/>
    </contour>
    <contour>
      <point x="448" y="435" type="line"/>
      <point x="476" y="347" type="line"/>
      <point x="490" y="361" type="line"/>
      <point x="462" y="449" type="line"/>
    </contour>
    <contour>
      <point x="494" y="467" type="line"/>
      <point x="442" y="448" type="line"/>
      <point x="446" y="428" type="line"/>
      <point x="497" y="447" type="line"/>
    </contour>
    <contour>
      <point x="449" y="442" type="line"/>
      <point x="299" y="359" type="line"/>
      <point x="312" y="344" type="line"/>
      <point x="462" y="427" type="line"/>
    </contour>
    <contour>
      <point x="153" y="0" type="line"/>
      <point x="168" y="14" type="line"/>
      <point x="20" y="149" type="line"/>
      <point x="5" y="135" type="line"/>
    </contour>
    <contour>
      <point x="23" y="134" type="line"/>
      <point x="173" y="169" type="line"/>
      <point x="167" y="186" type="line"/>
      <point x="17" y="151" type="line"/>
    </contour>
    <contour>
      <point x="161" y="7" type="line"/>
      <point x="275" y="89" type="line"/>
      <point x="258" y="99" type="line"/>
      <point x="144" y="17" type="line"/>
    </contour>
    <contour>
      <point x="153" y="0" type="line"/>
      <point x="322" y="0" type="line"/>
      <point x="322" y="20" type="line"/>
      <point x="153" y="20" type="line"/>
    </contour>
    <contour>
      <point x="259" y="84" type="line"/>
      <point x="273" y="98" type="line"/>
      <point x="174" y="187" type="line"/>
      <point x="159" y="173" type="line"/>
    </contour>
    <contour>
      <point x="5" y="135" type="line"/>
      <point x="26" y="135" type="line"/>
      <point x="26" y="466" type="line"/>
      <point x="5" y="466" type="line"/>
    </contour>
    <contour>
      <point x="175" y="169" type="line"/>
      <point x="224" y="198" type="line"/>
      <point x="218" y="214" type="line"/>
      <point x="169" y="185" type="line"/>
    </contour>
    <contour>
      <point x="259" y="84" type="line"/>
      <point x="361" y="84" type="line"/>
      <point x="361" y="103" type="line"/>
      <point x="259" y="103" type="line"/>
    </contour>
    <contour>
      <point x="275" y="91" type="line"/>
      <point x="246" y="177" type="line"/>
      <point x="229" y="179" type="line"/>
      <point x="253" y="102" type="line"/>
    </contour>
    <contour>
      <point x="310" y="10" type="line"/>
      <point x="334" y="17" type="line"/>
      <point x="371" y="94" type="line"/>
      <point x="348" y="87" type="line"/>
    </contour>
    <contour>
      <point x="159" y="173" type="line"/>
      <point x="180" y="173" type="line"/>
      <point x="180" y="445" type="line"/>
      <point x="159" y="445" type="line"/>
    </contour>
    <contour>
      <point x="352" y="90" type="line"/>
      <point x="368" y="102" type="line"/>
      <point x="282" y="184" type="line"/>
      <point x="266" y="172" type="line"/>
    </contour>
    <contour>
      <point x="167" y="432" type="line"/>
      <point x="174" y="450" type="line"/>
      <point x="26" y="470" type="line"/>
      <point x="19" y="452" type="line"/>
    </contour>
    <contour>
      <point x="20" y="452" type="line"/>
      <point x="171" y="586" type="line"/>
      <point x="156" y="600" type="line"/>
      <point x="5" y="466" type="line"/>
    </contour>
    <contour>
      <point x="174" y="431" type="line"/>
      <point x="270" y="524" type="line"/>
      <point x="256" y="538" type="line"/>
      <point x="159" y="445" type="line"/>
    </contour>
    <contour>
      <point x="231" y="437" type="line"/>
      <point x="250" y="440" type="line"/>
      <point x="282" y="532" type="line"/>
      <point x="260" y="524" type="line"/>
    </contour>
    <contour>
      <point x="267" y="521" type="line"/>
      <point x="280" y="533" type="line"/>
      <point x="175" y="592" type="line"/>
      <point x="154" y="585" type="line"/>
    </contour>
    <contour>
      <point x="256" y="521" type="line"/>
      <point x="373" y="521" type="line"/>
      <point x="373" y="538" type="line"/>
      <point x="256" y="538" type="line"/>
    </contour>
    <contour>
      <point x="156" y="582" type="line"/>
      <point x="373" y="582" type="line"/>
      <point x="373" y="600" type="line"/>
      <point x="156" y="600" type="line"/>
    </contour>
    <contour>
      <point x="216" y="391" type="line"/>
      <point x="228" y="407" type="line"/>
      <point x="175" y="449" type="line"/>
      <point x="169" y="433" type="line"/>
    </contour>
    <contour>
      <point x="209" y="207" type="line"/>
      <point x="229" y="207" type="line"/>
      <point x="229" y="407" type="line"/>
      <point x="209" y="407" type="line"/>
    </contour>
    <contour>
      <point x="233" y="167" type="line"/>
      <point x="281" y="167" type="line"/>
      <point x="281" y="185" type="line"/>
      <point x="233" y="185" type="line"/>
    </contour>
    <contour>
      <point x="235" y="434" type="line"/>
      <point x="285" y="434" type="line"/>
      <point x="285" y="452" type="line"/>
      <point x="241" y="451" type="line"/>
    </contour>
    <contour>
      <point x="282" y="169" type="line"/>
      <point x="319" y="201" type="line"/>
      <point x="302" y="214" type="line"/>
      <point x="268" y="183" type="line"/>
    </contour>
    <contour>
      <point x="299" y="203" type="line"/>
      <point x="319" y="201" type="line"/>
      <point x="319" y="279" type="line"/>
      <point x="299" y="279" type="line"/>
    </contour>
    <contour>
      <point x="304" y="399" type="line"/>
      <point x="318" y="413" type="line"/>
      <point x="285" y="452" type="line"/>
      <point x="271" y="438" type="line"/>
    </contour>
    <contour>
      <point x="453" y="435" type="line"/>
      <point x="466" y="447" type="line"/>
      <point x="373" y="538" type="line"/>
      <point x="359" y="524" type="line"/>
    </contour>
    <contour>
      <point x="286" y="434" type="line"/>
      <point x="377" y="523" type="line"/>
      <point x="360" y="535" type="line"/>
      <point x="270" y="446" type="line"/>
    </contour>
    <contour>
      <point x="376" y="523" type="line"/>
      <point x="384" y="581" type="line"/>
      <point x="368" y="593" type="line"/>
      <point x="359" y="534" type="line"/>
    </contour>
    <contour>
      <point x="361" y="84" type="line"/>
      <point x="459" y="180" type="line"/>
      <point x="445" y="194" type="line"/>
      <point x="347" y="98" type="line"/>
    </contour>
    <contour>
      <point x="299" y="342" type="line"/>
      <point x="319" y="342" type="line"/>
      <point x="319" y="411" type="line"/>
      <point x="299" y="411" type="line"/>
    </contour>
    <contour>
      <point x="299" y="258" type="line"/>
      <point x="505" y="258" type="line"/>
      <point x="505" y="279" type="line"/>
      <point x="299" y="279" type="line"/>
    </contour>
    <contour>
      <point x="322" y="0" type="line"/>
      <point x="457" y="89" type="line"/>
      <point x="444" y="104" type="line"/>
      <point x="309" y="15" type="line"/>
    </contour>
    <contour>
      <point x="485" y="268" type="line"/>
      <point x="485" y="0" type="line"/>
      <point x="505" y="0" type="line"/>
      <point x="505" y="268" type="line"/>
    </contour>
    <contour>
      <point x="444" y="85" type="line"/>
      <point x="484" y="0" type="line"/>
      <point x="497" y="16" type="line"/>
      <point x="459" y="100" type="line"/>
    </contour>
    <contour>
      <point x="233" y="167" type="line"/>
      <point x="247" y="181" type="line"/>
      <point x="222" y="216" type="line"/>
      <point x="208" y="202" type="line"/>
    </contour>
    <contour>
      <point x="223" y="395" type="line"/>
      <point x="250" y="435" type="line"/>
      <point x="236" y="449" type="line"/>
      <point x="209" y="407" type="line"/>
    </contour>
    <contour>
      <point x="461" y="176" type="line"/>
      <point x="495" y="253" type="line"/>
      <point x="481" y="267" type="line"/>
      <point x="447" y="190" type="line"/>
    </contour>
    <contour>
      <point x="441" y="89" type="line"/>
      <point x="461" y="89" type="line"/>
      <point x="461" y="188" type="line"/>
      <point x="441" y="188" type="line"/>
    </contour>
    <contour>
      <point x="437" y="176" type="line"/>
      <point x="451" y="190" type="line"/>
      <point x="324" y="267" type="line"/>
      <point x="310" y="253" type="line"/>
    </contour>
    <contour>
      <point x="307" y="401" type="line"/>
      <point x="459" y="431" type="line"/>
      <point x="453" y="447" type="line"/>
      <point x="301" y="417" type="line"/>
    </contour>
    <contour>
      <point x="435" y="170" type="line"/>
      <point x="449" y="184" type="line"/>
      <point x="315" y="213" type="line"/>
      <point x="301" y="199" type="line"/>
    </contour>
  </outline>
</glyph>
<glyph name="J" format="2">
  <advance width="297"/>
  <unicode hex="004A"/>
  <anchor x="196" y="0" name="bottom"/>
  <anchor x="196" y="600" name="top"/>
  <outline>
    <contour>
      <point x="144" y="0" type="line"/>
      <point x="287" y="146" type="line"/>
      <point x="273" y="160" type="line"/>
      <point x="130" y="14" type="line"/>
    </contour>
    <contour>
      <point x="5" y="0" type="line"/>
      <point x="144" y="0" type="line"/>
      <point x="144" y="18" type="line"/>
      <point x="5" y="18" type="line"/>
    </contour>
    <contour>
      <point x="5" y="0" type="line"/>
      <point x="25" y="0" type="line"/>
      <point x="25" y="185" type="line"/>
      <point x="5" y="185" type="line"/>
    </contour>
    <contour>
      <point x="27" y="4" type="line"/>
      <point x="151" y="111" type="line"/>
      <point x="137" y="122" type="line"/>
      <point x="13" y="20" type="line"/>
    </contour>
    <contour>
      <point x="132" y="9" type="line"/>
      <point x="149" y="18" type="line"/>
      <point x="148" y="115" type="line"/>
      <point x="131" y="106" type="line"/>
    </contour>
    <contour>
      <point x="6" y="167" type="line"/>
      <point x="55" y="167" type="line"/>
      <point x="55" y="185" type="line"/>
      <point x="6" y="185" type="line"/>
    </contour>
    <contour>
      <point x="133" y="103" type="line"/>
      <point x="150" y="112" type="line"/>
      <point x="57" y="184" type="line"/>
      <point x="40" y="175" type="line"/>
    </contour>
    <contour>
      <point x="55" y="167" type="line"/>
      <point x="88" y="204" type="line"/>
      <point x="76" y="218" type="line"/>
      <point x="43" y="181" type="line"/>
    </contour>
    <contour>
      <point x="144" y="101" type="line"/>
      <point x="231" y="191" type="line"/>
      <point x="217" y="205" type="line"/>
      <point x="130" y="115" type="line"/>
    </contour>
    <contour>
      <point x="214" y="189" type="line"/>
      <point x="220" y="206" type="line"/>
      <point x="74" y="222" type="line"/>
      <point x="68" y="205" type="line"/>
    </contour>
    <contour>
      <point x="217" y="188" type="line"/>
      <point x="281" y="142" type="line"/>
      <point x="287" y="159" type="line"/>
      <point x="223" y="205" type="line"/>
    </contour>
    <contour>
      <point x="68" y="204" type="line"/>
      <point x="88" y="204" type="line"/>
      <point x="88" y="600" type="line"/>
      <point x="68" y="600" type="line"/>
    </contour>
    <contour>
      <point x="211" y="191" type="line"/>
      <point x="231" y="191" type="line"/>
      <point x="231" y="505" type="line"/>
      <point x="211" y="505" type="line"/>
    </contour>
    <contour>
      <point x="267" y="146" type="line"/>
      <point x="287" y="146" type="line"/>
      <point x="287" y="600" type="line"/>
      <point x="267" y="600" type="line"/>
    </contour>
    <contour>
      <point x="213" y="492" type="line"/>
      <point x="228" y="504" type="line"/>
      <point x="91" y="592" type="line"/>
      <point x="71" y="581" type="line"/>
    </contour>
    <contour>
      <point x="72" y="580" type="line"/>
      <point x="284" y="580" type="line"/>
      <point x="284" y="600" type="line"/>
      <point x="72" y="600" type="line"/>
    </contour>
    <contour>
      <point x="229" y="491" type="line"/>
      <point x="282" y="579" type="line"/>
      <point x="262" y="586" type="line"/>
      <point x="209" y="498" type="line"/>
    </contour>
  </outline>
</glyph>
<glyph name="N" format="2">
  <advance width="578"/>
  <unicode hex="004E"/>
  <anchor x="289" y="0" name="bottom"/>
  <anchor x="289" y="600" name="top"/>
  <outline>
    <contour>
      <point x="10" y="0" type="line"/>
      <point x="30" y="0" type="line"/>
      <point x="30" y="600" type="line"/>
      <point x="10" y="600" type="line"/>
    </contour>
    <contour>
      <point x="167" y="0" type="line"/>
      <point x="187" y="0" type="line"/>
      <point x="187" y="424" type="line"/>
      <point x="167" y="506" type="line"/>
    </contour>
    <contour>
      <point x="548" y="0" type="line"/>
      <point x="568" y="0" type="line"/>
      <point x="568" y="600" type="line"/>
      <point x="548" y="600" type="line"/>
    </contour>
    <contour>
      <point x="510" y="104" type="line"/>
      <point x="530" y="76" type="line"/>
      <point x="530" y="551" type="line"/>
      <point x="510" y="551" type="line"/>
    </contour>
    <contour>
      <point x="552" y="18" type="line"/>
      <point x="562" y="34" type="line"/>
      <point x="505" y="123" type="line"/>
      <point x="495" y="108" type="line"/>
    </contour>
    <contour>
      <point x="299" y="17" type="line"/>
      <point x="515" y="108" type="line"/>
      <point x="505" y="123" type="line"/>
      <point x="289" y="33" type="line"/>
    </contour>
    <contour>
      <point x="24" y="9" type="line"/>
      <point x="152" y="81" type="line"/>
      <point x="139" y="94" type="line"/>
      <point x="11" y="22" type="line"/>
    </contour>
    <contour>
      <point x="166" y="9" type="line"/>
      <point x="178" y="23" type="line"/>
      <point x="148" y="100" type="line"/>
      <point x="134" y="86" type="line"/>
    </contour>
    <contour>
      <point x="287" y="0" type="line"/>
      <point x="566" y="0" type="line"/>
      <point x="566" y="20" type="line"/>
      <point x="287" y="20" type="line"/>
    </contour>
    <contour>
      <point x="286" y="0" type="line"/>
      <point x="305" y="8" type="line"/>
      <point x="155" y="589" type="line"/>
      <point x="137" y="581" type="line"/>
    </contour>
    <contour>
      <point x="11" y="0" type="line"/>
      <point x="187" y="0" type="line"/>
      <point x="187" y="20" type="line"/>
      <point x="11" y="20" type="line"/>
    </contour>
    <contour>
      <point x="10" y="580" type="line"/>
      <point x="331" y="580" type="line"/>
      <point x="331" y="600" type="line"/>
      <point x="10" y="600" type="line"/>
    </contour>
    <contour>
      <point x="294" y="538" type="line"/>
      <point x="335" y="582" type="line"/>
      <point x="324" y="597" type="line"/>
      <point x="283" y="553" type="line"/>
    </contour>
    <contour>
      <point x="410" y="272" type="line"/>
      <point x="410" y="332" type="line"/>
      <point x="331" y="600" type="line"/>
      <point x="316" y="591" type="line"/>
    </contour>
    <contour>
      <point x="397" y="173" type="line"/>
      <point x="417" y="106" type="line"/>
      <point x="417" y="600" type="line"/>
      <point x="397" y="600" type="line"/>
    </contour>
    <contour>
      <point x="133" y="76" type="line"/>
      <point x="153" y="83" type="line"/>
      <point x="153" y="585" type="line"/>
      <point x="133" y="585" type="line"/>
    </contour>
    <contour>
      <point x="397" y="580" type="line"/>
      <point x="568" y="580" type="line"/>
      <point x="568" y="600" type="line"/>
      <point x="397" y="600" type="line"/>
    </contour>
    <contour>
      <point x="525" y="529" type="line"/>
      <point x="549" y="581" type="line"/>
      <point x="540" y="596" type="line"/>
      <point x="515" y="547" type="line"/>
    </contour>
    <contour>
      <point x="417" y="79" type="line"/>
      <point x="437" y="85" type="line"/>
      <point x="294" y="557" type="line"/>
      <point x="276" y="549" type="line"/>
    </contour>
    <contour>
      <point x="285" y="538" type="line"/>
      <point x="296" y="553" type="line"/>
      <point x="149" y="600" type="line"/>
      <point x="138" y="585" type="line"/>
    </contour>
    <contour>
      <point x="522" y="533" type="line"/>
      <point x="532" y="551" type="line"/>
      <point x="407" y="599" type="line"/>
      <point x="398" y="584" type="line"/>
    </contour>
  </outline>
</glyph>
<glyph name="O" format="2">
  <advance width="490"/>
  <unicode hex="004F"/>
  <anchor x="240" y="0" name="bottom"/>
  <anchor x="240" y="300" name="center"/>
  <anchor x="328" y="18" name="ogonek"/>
  <anchor x="260" y="600" name="top"/>
  <anchor x="20" y="600" name="topleft"/>
  <anchor x="460" y="600" name="topright"/>
  <outline>
    <contour>
      <point x="165" y="0" type="line"/>
      <point x="180" y="15" type="line"/>
      <point x="20" y="165" type="line"/>
      <point x="5" y="150" type="line"/>
    </contour>
    <contour>
      <point x="25" y="146" type="line"/>
      <point x="183" y="168" type="line"/>
      <point x="177" y="186" type="line"/>
      <point x="19" y="164" type="line"/>
    </contour>
    <contour>
      <point x="177" y="9" type="line"/>
      <point x="265" y="98" type="line"/>
      <point x="249" y="108" type="line"/>
      <point x="161" y="19" type="line"/>
    </contour>
    <contour>
      <point x="165" y="0" type="line"/>
      <point x="338" y="0" type="line"/>
      <point x="338" y="18" type="line"/>
      <point x="165" y="18" type="line"/>
    </contour>
    <contour>
      <point x="250" y="89" type="line"/>
      <point x="255" y="108" type="line"/>
      <point x="184" y="189" type="line"/>
      <point x="170" y="175" type="line"/>
    </contour>
    <contour>
      <point x="5" y="150" type="line"/>
      <point x="25" y="150" type="line"/>
      <point x="25" y="460" type="line"/>
      <point x="5" y="460" type="line"/>
    </contour>
    <contour>
      <point x="185" y="171" type="line"/>
      <point x="232" y="189" type="line"/>
      <point x="226" y="205" type="line"/>
      <point x="179" y="187" type="line"/>
    </contour>
    <contour>
      <point x="250" y="89" type="line"/>
      <point x="355" y="89" type="line"/>
      <point x="355" y="107" type="line"/>
      <point x="250" y="107" type="line"/>
    </contour>
    <contour>
      <point x="261" y="99" type="line"/>
      <point x="261" y="167" type="line"/>
      <point x="244" y="177" type="line"/>
      <point x="244" y="103" type="line"/>
    </contour>
    <contour>
      <point x="313" y="9" type="line"/>
      <point x="335" y="18" type="line"/>
      <point x="366" y="107" type="line"/>
      <point x="344" y="98" type="line"/>
    </contour>
    <contour>
      <point x="170" y="175" type="line"/>
      <point x="191" y="175" type="line"/>
      <point x="191" y="435" type="line"/>
      <point x="170" y="435" type="line"/>
    </contour>
    <contour>
      <point x="247" y="159" type="line"/>
      <point x="261" y="173" type="line"/>
      <point x="229" y="204" type="line"/>
      <point x="215" y="190" type="line"/>
    </contour>
    <contour>
      <point x="250" y="159" type="line"/>
      <point x="273" y="159" type="line"/>
      <point x="273" y="177" type="line"/>
      <point x="250" y="177" type="line"/>
    </contour>
    <contour>
      <point x="349" y="93" type="line"/>
      <point x="362" y="103" type="line"/>
      <point x="273" y="177" type="line"/>
      <point x="260" y="167" type="line"/>
    </contour>
    <contour>
      <point x="283" y="159" type="line"/>
      <point x="305" y="190" type="line"/>
      <point x="291" y="204" type="line"/>
      <point x="269" y="173" type="line"/>
    </contour>
    <contour>
      <point x="177" y="424" type="line"/>
      <point x="183" y="441" type="line"/>
      <point x="25" y="463" type="line"/>
      <point x="19" y="446" type="line"/>
    </contour>
    <contour>
      <point x="354" y="89" type="line"/>
      <point x="445" y="175" type="line"/>
      <point x="431" y="189" type="line"/>
      <point x="340" y="103" type="line"/>
    </contour>
    <contour>
      <point x="215" y="190" type="line"/>
      <point x="235" y="190" type="line"/>
      <point x="235" y="405" type="line"/>
      <point x="215" y="405" type="line"/>
    </contour>
    <contour>
      <point x="338" y="0" type="line"/>
      <point x="485" y="140" type="line"/>
      <point x="471" y="154" type="line"/>
      <point x="324" y="14" type="line"/>
    </contour>
    <contour>
      <point x="430" y="170" type="line"/>
      <point x="436" y="187" type="line"/>
      <point x="291" y="204" type="line"/>
      <point x="285" y="187" type="line"/>
    </contour>
    <contour>
      <point x="225" y="389" type="line"/>
      <point x="231" y="408" type="line"/>
      <point x="190" y="437" type="line"/>
      <point x="184" y="418" type="line"/>
    </contour>
    <contour>
      <point x="285" y="190" type="line"/>
      <point x="305" y="190" type="line"/>
      <point x="305" y="405" type="line"/>
      <point x="285" y="405" type="line"/>
    </contour>
    <contour>
      <point x="19" y="446" type="line"/>
      <point x="159" y="586" type="line"/>
      <point x="145" y="600" type="line"/>
      <point x="5" y="460" type="line"/>
    </contour>
    <contour>
      <point x="184" y="421" type="line"/>
      <point x="264" y="512" type="line"/>
      <point x="250" y="526" type="line"/>
      <point x="170" y="435" type="line"/>
    </contour>
    <contour>
      <point x="465" y="136" type="line"/>
      <point x="475" y="158" type="line"/>
      <point x="442" y="190" type="line"/>
      <point x="432" y="169" type="line"/>
    </contour>
    <contour>
      <point x="229" y="391" type="line"/>
      <point x="261" y="422" type="line"/>
      <point x="247" y="436" type="line"/>
      <point x="215" y="405" type="line"/>
    </contour>
    <contour>
      <point x="255" y="418" type="line"/>
      <point x="273" y="418" type="line"/>
      <point x="273" y="436" type="line"/>
      <point x="255" y="436" type="line"/>
    </contour>
    <contour>
      <point x="244" y="418" type="line"/>
      <point x="262" y="428" type="line"/>
      <point x="264" y="520" type="line"/>
      <point x="245" y="510" type="line"/>
    </contour>
    <contour>
      <point x="291" y="391" type="line"/>
      <point x="305" y="405" type="line"/>
      <point x="283" y="436" type="line"/>
      <point x="269" y="422" type="line"/>
    </contour>
    <contour>
      <point x="425" y="175" type="line"/>
      <point x="445" y="175" type="line"/>
      <point x="445" y="435" type="line"/>
      <point x="425" y="435" type="line"/>
    </contour>
    <contour>
      <point x="243" y="514" type="line"/>
      <point x="266" y="520" type="line"/>
      <point x="161" y="590" type="line"/>
      <point x="138" y="584" type="line"/>
    </contour>
    <contour>
      <point x="273" y="418" type="line"/>
      <point x="365" y="510" type="line"/>
      <point x="350" y="522" type="line"/>
      <point x="261" y="430" type="line"/>
    </contour>
    <contour>
      <point x="291" y="391" type="line"/>
      <point x="431" y="421" type="line"/>
      <point x="425" y="438" type="line"/>
      <point x="285" y="408" type="line"/>
    </contour>
    <contour>
      <point x="250" y="508" type="line"/>
      <point x="357" y="508" type="line"/>
      <point x="357" y="526" type="line"/>
      <point x="250" y="526" type="line"/>
    </contour>
    <contour>
      <point x="465" y="140" type="line"/>
      <point x="485" y="140" type="line"/>
      <point x="485" y="460" type="line"/>
      <point x="465" y="460" type="line"/>
    </contour>
    <contour>
      <point x="431" y="421" type="line"/>
      <point x="445" y="435" type="line"/>
      <point x="355" y="526" type="line"/>
      <point x="341" y="512" type="line"/>
    </contour>
    <contour>
      <point x="145" y="582" type="line"/>
      <point x="355" y="582" type="line"/>
      <point x="355" y="600" type="line"/>
      <point x="145" y="600" type="line"/>
    </contour>
    <contour>
      <point x="366" y="509" type="line"/>
      <point x="356" y="580" type="line"/>
      <point x="339" y="586" type="line"/>
      <point x="347" y="515" type="line"/>
    </contour>
    <contour>
      <point x="440" y="422" type="line"/>
      <point x="473" y="444" type="line"/>
      <point x="463" y="464" type="line"/>
      <point x="430" y="442" type="line"/>
    </contour>
    <contour>
      <point x="471" y="446" type="line"/>
      <point x="485" y="460" type="line"/>
      <point x="355" y="600" type="line"/>
      <point x="341" y="586" type="line"/>
    </contour>
  </outline>
</glyph>
<glyph name="P" format="2">
  <advance width="507"/>
  <unicode hex="0050"/>
  <anchor x="246" y="0" name="bottom"/>
  <anchor x="254" y="600" name="top"/>
  <outline>
    <contour>
      <point x="10" y="599" type="line"/>
      <point x="10" y="0" type="line"/>
      <point x="30" y="0" type="line"/>
      <point x="30" y="599" type="line"/>
    </contour>
    <contour>
      <point x="211" y="225" type="line"/>
      <point x="211" y="0" type="line"/>
      <point x="231" y="0" type="line"/>
      <point x="231" y="225" type="line"/>
    </contour>
    <contour>
      <point x="224" y="20" type="line"/>
      <point x="15" y="20" type="line"/>
      <point x="14" y="0" type="line"/>
      <point x="224" y="0" type="line"/>
    </contour>
    <contour>
      <point x="355" y="237" type="line"/>
      <point x="211" y="237" type="line"/>
      <point x="211" y="218" type="line"/>
      <point x="355" y="218" type="line"/>
    </contour>
    <contour>
      <point x="361" y="600" type="line"/>
      <point x="10" y="600" type="line"/>
      <point x="10" y="580" type="line"/>
      <point x="361" y="580" type="line"/>
    </contour>
    <contour>
      <point x="209" y="446" type="line"/>
      <point x="209" y="365" type="line"/>
      <point x="229" y="365" type="line"/>
      <point x="229" y="446" type="line"/>
    </contour>
    <contour>
      <point x="451" y="459" type="line"/>
      <point x="451" y="356" type="line"/>
      <point x="470" y="356" type="line"/>
      <point x="470" y="459" type="line"/>
    </contour>
    <contour>
      <point x="27" y="4" type="line"/>
      <point x="171" y="114" type="line"/>
      <point x="158" y="127" type="line"/>
      <point x="14" y="17" type="line"/>
    </contour>
    <contour>
      <point x="216" y="3" type="line"/>
      <point x="228" y="16" type="line"/>
      <point x="170" y="127" type="line"/>
      <point x="155" y="114" type="line"/>
    </contour>
    <contour>
      <point x="154" y="110" type="line"/>
      <point x="174" y="110" type="line"/>
      <point x="174" y="505" type="line"/>
      <point x="154" y="508" type="line"/>
    </contour>
    <contour>
      <point x="212" y="434" type="line"/>
      <point x="227" y="447" type="line"/>
      <point x="177" y="505" type="line"/>
      <point x="159" y="492" type="line"/>
    </contour>
    <contour>
      <point x="221" y="212" type="line"/>
      <point x="234" y="230" type="line"/>
      <point x="173" y="312" type="line"/>
      <point x="164" y="292" type="line"/>
    </contour>
    <contour>
      <point x="361" y="497" type="line"/>
      <point x="381" y="496" type="line"/>
      <point x="366" y="589" type="line"/>
      <point x="344" y="590" type="line"/>
    </contour>
    <contour>
      <point x="352" y="508" type="line"/>
      <point x="462" y="443" type="line"/>
      <point x="470" y="459" type="line"/>
      <point x="370" y="518" type="line"/>
    </contour>
    <contour>
      <point x="347" y="586" type="line"/>
      <point x="492" y="487" type="line"/>
      <point x="502" y="501" type="line"/>
      <point x="361" y="600" type="line"/>
    </contour>
    <contour>
      <point x="466" y="445" type="line"/>
      <point x="492" y="491" type="line"/>
      <point x="482" y="505" type="line"/>
      <point x="455" y="460" type="line"/>
    </contour>
    <contour>
      <point x="482" y="501" type="line"/>
      <point x="482" y="317" type="line"/>
      <point x="502" y="317" type="line"/>
      <point x="502" y="501" type="line"/>
    </contour>
    <contour>
      <point x="340" y="233" type="line"/>
      <point x="355" y="218" type="line"/>
      <point x="502" y="317" type="line"/>
      <point x="489" y="332" type="line"/>
    </contour>
    <contour>
      <point x="465" y="369" type="line"/>
      <point x="455" y="355" type="line"/>
      <point x="484" y="320" type="line"/>
      <point x="494" y="332" type="line"/>
    </contour>
    <contour>
      <point x="352" y="309" type="line"/>
      <point x="344" y="224" type="line"/>
      <point x="364" y="228" type="line"/>
      <point x="371" y="310" type="line"/>
    </contour>
    <contour>
      <point x="349" y="305" type="line"/>
      <point x="364" y="294" type="line"/>
      <point x="470" y="356" type="line"/>
      <point x="459" y="370" type="line"/>
    </contour>
    <contour>
      <point x="362" y="313" type="line"/>
      <point x="171" y="313" type="line"/>
      <point x="171" y="294" type="line"/>
      <point x="362" y="294" type="line"/>
    </contour>
    <contour>
      <point x="371" y="515" type="line"/>
      <point x="158" y="515" type="line"/>
      <point x="158" y="496" type="line"/>
      <point x="371" y="496" type="line"/>
    </contour>
    <contour>
      <point x="211" y="378" type="line"/>
      <point x="161" y="312" type="line"/>
      <point x="172" y="296" type="line"/>
      <point x="231" y="370" type="line"/>
    </contour>
    <contour>
      <point x="274" y="366" type="line"/>
      <point x="354" y="302" type="line"/>
      <point x="373" y="311" type="line"/>
      <point x="290" y="376" type="line"/>
    </contour>
    <contour>
      <point x="290" y="381" type="line"/>
      <point x="218" y="381" type="line"/>
      <point x="218" y="364" type="line"/>
      <point x="290" y="363" type="line"/>
    </contour>
    <contour>
      <point x="282" y="451" type="line"/>
      <point x="210" y="451" type="line"/>
      <point x="210" y="432" type="line"/>
      <point x="280" y="432" type="line"/>
    </contour>
    <contour>
      <point x="258" y="438" type="line"/>
      <point x="289" y="440" type="line"/>
      <point x="384" y="501" type="line"/>
      <point x="368" y="510" type="line"/>
    </contour>
    <contour>
      <point x="303" y="423" type="line"/>
      <point x="303" y="390" type="line"/>
      <point x="322" y="390" type="line"/>
      <point x="322" y="422" type="line"/>
    </contour>
    <contour>
      <point x="317" y="408" type="line"/>
      <point x="468" y="451" type="line"/>
      <point x="462" y="466" type="line"/>
      <point x="311" y="423" type="line"/>
    </contour>
    <contour>
      <point x="317" y="401" type="line"/>
      <point x="298" y="387" type="line"/>
      <point x="459" y="352" type="line"/>
      <point x="467" y="368" type="line"/>
    </contour>
    <contour>
      <point x="274" y="375" type="line"/>
      <point x="287" y="362" type="line"/>
      <point x="325" y="386" type="line"/>
      <point x="311" y="401" type="line"/>
    </contour>
    <contour>
      <point x="267" y="436" type="line"/>
      <point x="305" y="414" type="line"/>
      <point x="324" y="423" type="line"/>
      <point x="282" y="450" type="line"/>
    </contour>
    <contour>
      <point x="159" y="492" type="line"/>
      <point x="173" y="511" type="line"/>
      <point x="32" y="591" type="line"/>
      <point x="16" y="578" type="line"/>
    </contour>
  </outline>
</glyph>
<glyph name="Q" format="2">
  <advance width="490"/>
  <unicode hex="0051"/>
  <outline>
    <contour>
      <point x="165" y="0" type="line"/>
      <point x="179" y="14" type="line"/>
      <point x="19" y="164" type="line"/>
      <point x="5" y="150" type="line"/>
    </contour>
    <contour>
      <point x="25" y="147" type="line"/>
      <point x="183" y="169" type="line"/>
      <point x="177" y="186" type="line"/>
      <point x="19" y="164" type="line"/>
    </contour>
    <contour>
      <point x="177" y="9" type="line"/>
      <point x="265" y="98" type="line"/>
      <point x="250" y="107" type="line"/>
      <point x="162" y="18" type="line"/>
    </contour>
    <contour>
      <point x="165" y="0" type="line"/>
      <point x="246" y="0" type="line"/>
      <point x="246" y="18" type="line"/>
      <point x="165" y="18" type="line"/>
    </contour>
    <contour>
      <point x="250" y="89" type="line"/>
      <point x="264" y="103" type="line"/>
      <point x="184" y="189" type="line"/>
      <point x="170" y="175" type="line"/>
    </contour>
    <contour>
      <point x="5" y="150" type="line"/>
      <point x="25" y="150" type="line"/>
      <point x="25" y="460" type="line"/>
      <point x="5" y="460" type="line"/>
    </contour>
    <contour>
      <point x="185" y="171" type="line"/>
      <point x="235" y="187" type="line"/>
      <point x="229" y="204" type="line"/>
      <point x="179" y="187" type="line"/>
    </contour>
    <contour>
      <point x="250" y="89" type="line"/>
      <point x="357" y="89" type="line"/>
      <point x="357" y="107" type="line"/>
      <point x="250" y="107" type="line"/>
    </contour>
    <contour>
      <point x="264" y="93" type="line"/>
      <point x="264" y="167" type="line"/>
      <point x="247" y="177" type="line"/>
      <point x="247" y="103" type="line"/>
    </contour>
    <contour>
      <point x="342" y="27" type="line"/>
      <point x="362" y="27" type="line"/>
      <point x="362" y="107" type="line"/>
      <point x="342" y="107" type="line"/>
    </contour>
    <contour>
      <point x="170" y="175" type="line"/>
      <point x="190" y="175" type="line"/>
      <point x="190" y="435" type="line"/>
      <point x="170" y="435" type="line"/>
    </contour>
    <contour>
      <point x="247" y="159" type="line"/>
      <point x="261" y="173" type="line"/>
      <point x="229" y="204" type="line"/>
      <point x="215" y="190" type="line"/>
    </contour>
    <contour>
      <point x="247" y="159" type="line"/>
      <point x="270" y="159" type="line"/>
      <point x="270" y="177" type="line"/>
      <point x="247" y="177" type="line"/>
    </contour>
    <contour>
      <point x="347" y="93" type="line"/>
      <point x="360" y="103" type="line"/>
      <point x="273" y="177" type="line"/>
      <point x="260" y="167" type="line"/>
    </contour>
    <contour>
      <point x="277" y="163" type="line"/>
      <point x="305" y="194" type="line"/>
      <point x="291" y="208" type="line"/>
      <point x="259" y="173" type="line"/>
    </contour>
    <contour>
      <point x="177" y="424" type="line"/>
      <point x="183" y="441" type="line"/>
      <point x="25" y="463" type="line"/>
      <point x="19" y="446" type="line"/>
    </contour>
    <contour>
      <point x="355" y="89" type="line"/>
      <point x="445" y="175" type="line"/>
      <point x="433" y="189" type="line"/>
      <point x="343" y="103" type="line"/>
    </contour>
    <contour>
      <point x="215" y="190" type="line"/>
      <point x="235" y="190" type="line"/>
      <point x="235" y="405" type="line"/>
      <point x="215" y="405" type="line"/>
    </contour>
    <contour>
      <point x="342" y="27" type="line"/>
      <point x="485" y="150" type="line"/>
      <point x="471" y="164" type="line"/>
      <point x="349" y="60" type="line"/>
    </contour>
    <contour>
      <point x="430" y="173" type="line"/>
      <point x="436" y="189" type="line"/>
      <point x="291" y="206" type="line"/>
      <point x="284" y="187" type="line"/>
    </contour>
    <contour>
      <point x="225" y="384" type="line"/>
      <point x="231" y="404" type="line"/>
      <point x="190" y="437" type="line"/>
      <point x="184" y="417" type="line"/>
    </contour>
    <contour>
      <point x="285" y="190" type="line"/>
      <point x="305" y="190" type="line"/>
      <point x="305" y="405" type="line"/>
      <point x="285" y="405" type="line"/>
    </contour>
    <contour>
      <point x="19" y="446" type="line"/>
      <point x="159" y="586" type="line"/>
      <point x="145" y="600" type="line"/>
      <point x="5" y="460" type="line"/>
    </contour>
    <contour>
      <point x="184" y="421" type="line"/>
      <point x="264" y="512" type="line"/>
      <point x="250" y="526" type="line"/>
      <point x="170" y="435" type="line"/>
    </contour>
    <contour>
      <point x="465" y="147" type="line"/>
      <point x="471" y="164" type="line"/>
      <point x="438" y="190" type="line"/>
      <point x="432" y="173" type="line"/>
    </contour>
    <contour>
      <point x="229" y="391" type="line"/>
      <point x="261" y="422" type="line"/>
      <point x="247" y="436" type="line"/>
      <point x="215" y="405" type="line"/>
    </contour>
    <contour>
      <point x="247" y="418" type="line"/>
      <point x="273" y="418" type="line"/>
      <point x="273" y="436" type="line"/>
      <point x="247" y="436" type="line"/>
    </contour>
    <contour>
      <point x="247" y="418" type="line"/>
      <point x="263" y="428" type="line"/>
      <point x="261" y="520" type="line"/>
      <point x="245" y="510" type="line"/>
    </contour>
    <contour>
      <point x="291" y="391" type="line"/>
      <point x="305" y="405" type="line"/>
      <point x="273" y="436" type="line"/>
      <point x="259" y="422" type="line"/>
    </contour>
    <contour>
      <point x="425" y="175" type="line"/>
      <point x="445" y="175" type="line"/>
      <point x="445" y="435" type="line"/>
      <point x="425" y="435" type="line"/>
    </contour>
    <contour>
      <point x="245" y="512" type="line"/>
      <point x="269" y="519" type="line"/>
      <point x="165" y="586" type="line"/>
      <point x="141" y="579" type="line"/>
    </contour>
    <contour>
      <point x="273" y="418" type="line"/>
      <point x="365" y="510" type="line"/>
      <point x="350" y="520" type="line"/>
      <point x="258" y="428" type="line"/>
    </contour>
    <contour>
      <point x="291" y="391" type="line"/>
      <point x="431" y="421" type="line"/>
      <point x="425" y="437" type="line"/>
      <point x="285" y="407" type="line"/>
    </contour>
    <contour>
      <point x="250" y="508" type="line"/>
      <point x="360" y="508" type="line"/>
      <point x="360" y="526" type="line"/>
      <point x="250" y="526" type="line"/>
    </contour>
    <contour>
      <point x="465" y="150" type="line"/>
      <point x="485" y="150" type="line"/>
      <point x="485" y="460" type="line"/>
      <point x="465" y="460" type="line"/>
    </contour>
    <contour>
      <point x="431" y="421" type="line"/>
      <point x="445" y="435" type="line"/>
      <point x="360" y="526" type="line"/>
      <point x="346" y="512" type="line"/>
    </contour>
    <contour>
      <point x="145" y="582" type="line"/>
      <point x="355" y="582" type="line"/>
      <point x="355" y="600" type="line"/>
      <point x="145" y="600" type="line"/>
    </contour>
    <contour>
      <point x="364" y="509" type="line"/>
      <point x="356" y="580" type="line"/>
      <point x="339" y="586" type="line"/>
      <point x="347" y="515" type="line"/>
    </contour>
    <contour>
      <point x="438" y="424" type="line"/>
      <point x="471" y="446" type="line"/>
      <point x="465" y="463" type="line"/>
      <point x="432" y="441" type="line"/>
    </contour>
    <contour>
      <point x="471" y="446" type="line"/>
      <point x="485" y="460" type="line"/>
      <point x="355" y="600" type="line"/>
      <point x="341" y="586" type="line"/>
    </contour>
    <contour>
      <point x="247" y="2" type="line"/>
      <point x="354" y="93" type="line"/>
      <point x="338" y="102" type="line"/>
      <point x="231" y="11" type="line"/>
    </contour>
    <contour>
      <point x="280" y="-81" type="line"/>
      <point x="353" y="-81" type="line"/>
      <point x="353" y="-63" type="line"/>
      <point x="280" y="-63" type="line"/>
    </contour>
    <contour>
      <point x="342" y="-81" type="line"/>
      <point x="362" y="-81" type="line"/>
      <point x="362" y="65" type="line"/>
      <point x="342" y="61" type="line"/>
    </contour>
    <contour>
      <point x="280" y="-81" type="line"/>
      <point x="295" y="-70" type="line"/>
      <point x="237" y="16" type="line"/>
      <point x="221" y="6" type="line"/>
    </contour>
    <contour>
      <point x="345" y="-79" type="line"/>
      <point x="360" y="-79" type="line"/>
      <point x="354" y="38" type="line"/>
      <point x="341" y="24" type="line"/>
    </contour>
    <contour>
      <point x="235" y="1" type="line"/>
      <point x="361" y="10" type="line"/>
      <point x="360" y="27" type="line"/>
      <point x="236" y="17" type="line"/>
    </contour>
    <contour>
      <point x="343" y="20" type="line"/>
      <point x="358" y="10" type="line"/>
      <point x="357" y="96" type="line"/>
      <point x="342" y="96" type="line"/>
    </contour>
  </outline>
</glyph>
<glyph name="R" format="2">
  <advance width="525"/>
  <unicode hex="0052"/>
  <anchor x="265" y="0" name="bottom"/>
  <anchor x="265" y="600" name="top"/>
  <outline>
    <contour>
      <point x="10" y="0" type="line"/>
      <point x="230" y="0" type="line"/>
      <point x="230" y="20" type="line"/>
      <point x="10" y="20" type="line"/>
    </contour>
    <contour>
      <point x="10" y="0" type="line"/>
      <point x="30" y="0" type="line"/>
      <point x="30" y="600" type="line"/>
      <point x="10" y="600" type="line"/>
    </contour>
    <contour>
      <point x="210" y="0" type="line"/>
      <point x="230" y="0" type="line"/>
      <point x="230" y="228" type="line"/>
      <point x="210" y="228" type="line"/>
    </contour>
    <contour>
      <point x="14" y="600" type="line"/>
      <point x="34" y="600" type="line"/>
    </contour>
    <contour>
      <point x="23" y="0" type="line"/>
      <point x="171" y="105" type="line"/>
      <point x="158" y="118" type="line"/>
      <point x="10" y="13" type="line"/>
    </contour>
    <contour>
      <point x="217" y="0" type="line"/>
      <point x="230" y="13" type="line"/>
      <point x="172" y="116" type="line"/>
      <point x="160" y="103" type="line"/>
    </contour>
    <contour>
      <point x="155" y="102" type="line"/>
      <point x="175" y="102" type="line"/>
      <point x="175" y="515" type="line"/>
      <point x="155" y="515" type="line"/>
    </contour>
    <contour>
      <point x="285" y="0" type="line"/>
      <point x="305" y="7" type="line"/>
      <point x="232" y="232" type="line"/>
      <point x="214" y="227" type="line"/>
    </contour>
    <contour>
      <point x="286" y="0" type="line"/>
      <point x="503" y="0" type="line"/>
      <point x="503" y="20" type="line"/>
      <point x="286" y="20" type="line"/>
    </contour>
    <contour>
      <point x="501" y="0" type="line"/>
      <point x="520" y="0" type="line"/>
      <point x="414" y="281" type="line"/>
      <point x="396" y="276" type="line"/>
    </contour>
    <contour>
      <point x="476" y="327" type="line"/>
      <point x="496" y="327" type="line"/>
      <point x="496" y="530" type="line"/>
      <point x="476" y="530" type="line"/>
    </contour>
    <contour>
      <point x="407" y="265" type="line"/>
      <point x="496" y="327" type="line"/>
      <point x="486" y="343" type="line"/>
      <point x="397" y="280" type="line"/>
    </contour>
    <contour>
      <point x="367" y="301" type="line"/>
      <point x="463" y="359" type="line"/>
      <point x="452" y="371" type="line"/>
      <point x="357" y="315" type="line"/>
    </contour>
    <contour>
      <point x="159" y="301" type="line"/>
      <point x="374" y="301" type="line"/>
      <point x="374" y="321" type="line"/>
      <point x="159" y="321" type="line"/>
    </contour>
    <contour>
      <point x="14" y="600" type="line"/>
      <point x="14" y="580" type="line"/>
      <point x="363" y="580" type="line"/>
      <point x="363" y="600" type="line"/>
    </contour>
    <contour>
      <point x="155" y="520" type="line"/>
      <point x="155" y="500" type="line"/>
      <point x="373" y="500" type="line"/>
      <point x="373" y="520" type="line"/>
    </contour>
    <contour>
      <point x="456" y="458" type="line"/>
      <point x="488" y="509" type="line"/>
      <point x="477" y="529" type="line"/>
      <point x="444" y="476" type="line"/>
    </contour>
    <contour>
      <point x="381" y="512" type="line"/>
      <point x="369" y="585" type="line"/>
      <point x="349" y="598" type="line"/>
      <point x="363" y="517" type="line"/>
    </contour>
    <contour>
      <point x="488" y="512" type="line"/>
      <point x="496" y="530" type="line"/>
      <point x="363" y="600" type="line"/>
      <point x="350" y="586" type="line"/>
    </contour>
    <contour>
      <point x="451" y="458" type="line"/>
      <point x="459" y="473" type="line"/>
      <point x="374" y="522" type="line"/>
      <point x="365" y="508" type="line"/>
    </contour>
    <contour>
      <point x="419" y="105" type="line"/>
      <point x="438" y="110" type="line"/>
      <point x="366" y="308" type="line"/>
      <point x="349" y="299" type="line"/>
    </contour>
    <contour>
      <point x="298" y="434" type="line"/>
      <point x="383" y="502" type="line"/>
      <point x="368" y="515" type="line"/>
      <point x="284" y="446" type="line"/>
    </contour>
    <contour>
      <point x="216" y="213" type="line"/>
      <point x="231" y="228" type="line"/>
      <point x="174" y="315" type="line"/>
      <point x="161" y="297" type="line"/>
    </contour>
    <contour>
      <point x="227" y="212" type="line"/>
      <point x="377" y="304" type="line"/>
      <point x="366" y="318" type="line"/>
      <point x="216" y="228" type="line"/>
    </contour>
    <contour>
      <point x="448" y="360" type="line"/>
      <point x="482" y="325" type="line"/>
      <point x="486" y="346" type="line"/>
      <point x="452" y="380" type="line"/>
    </contour>
    <contour>
      <point x="367" y="302" type="line"/>
      <point x="402" y="264" type="line"/>
      <point x="412" y="281" type="line"/>
      <point x="377" y="318" type="line"/>
    </contour>
    <contour>
      <point x="210" y="450" type="line"/>
      <point x="210" y="430" type="line"/>
      <point x="298" y="430" type="line"/>
      <point x="298" y="450" type="line"/>
    </contour>
    <contour>
      <point x="230" y="450" type="line"/>
      <point x="210" y="450" type="line"/>
      <point x="210" y="359" type="line"/>
      <point x="230" y="359" type="line"/>
    </contour>
    <contour>
      <point x="160" y="502" type="line"/>
      <point x="215" y="431" type="line"/>
      <point x="227" y="446" type="line"/>
      <point x="168" y="517" type="line"/>
    </contour>
    <contour>
      <point x="210" y="379" type="line"/>
      <point x="210" y="359" type="line"/>
      <point x="298" y="359" type="line"/>
      <point x="298" y="379" type="line"/>
    </contour>
    <contour>
      <point x="462" y="473" type="line"/>
      <point x="442" y="473" type="line"/>
      <point x="442" y="361" type="line"/>
      <point x="462" y="361" type="line"/>
    </contour>
    <contour>
      <point x="326" y="428" type="line"/>
      <point x="306" y="428" type="line"/>
      <point x="306" y="382" type="line"/>
      <point x="326" y="382" type="line"/>
    </contour>
    <contour>
      <point x="168" y="309" type="line"/>
      <point x="228" y="364" type="line"/>
      <point x="221" y="382" type="line"/>
      <point x="160" y="325" type="line"/>
    </contour>
    <contour>
      <point x="286" y="373" type="line"/>
      <point x="298" y="359" type="line"/>
      <point x="324" y="378" type="line"/>
      <point x="311" y="392" type="line"/>
    </contour>
    <contour>
      <point x="286" y="436" type="line"/>
      <point x="306" y="419" type="line"/>
      <point x="324" y="429" type="line"/>
      <point x="298" y="450" type="line"/>
    </contour>
    <contour>
      <point x="420" y="129" type="line"/>
      <point x="285" y="20" type="line"/>
      <point x="302" y="9" type="line"/>
      <point x="434" y="116" type="line"/>
    </contour>
    <contour>
      <point x="492" y="11" type="line"/>
      <point x="503" y="25" type="line"/>
      <point x="431" y="123" type="line"/>
      <point x="418" y="109" type="line"/>
    </contour>
    <contour>
      <point x="282" y="366" type="line"/>
      <point x="366" y="303" type="line"/>
      <point x="377" y="314" type="line"/>
      <point x="294" y="376" type="line"/>
    </contour>
    <contour>
      <point x="314" y="413" type="line"/>
      <point x="460" y="461" type="line"/>
      <point x="450" y="477" type="line"/>
      <point x="308" y="431" type="line"/>
    </contour>
    <contour>
      <point x="318" y="394" type="line"/>
      <point x="309" y="377" type="line"/>
      <point x="448" y="354" type="line"/>
      <point x="456" y="372" type="line"/>
    </contour>
    <contour>
      <point x="164" y="501" type="line"/>
      <point x="177" y="515" type="line"/>
      <point x="34" y="588" type="line"/>
      <point x="20" y="576" type="line"/>
    </contour>
  </outline>
</glyph>
<glyph name="T" format="2">
  <advance width="490"/>
  <unicode hex="0054"/>
  <anchor x="245" y="0" name="bottom"/>
  <anchor x="245" y="300" name="center"/>
  <anchor x="245" y="600" name="top"/>
  <outline>
    <contour>
      <point x="161" y="4" type="line"/>
      <point x="299" y="112" type="line"/>
      <point x="286" y="127" type="line"/>
      <point x="148" y="19" type="line"/>
    </contour>
    <contour>
      <point x="145" y="0" type="line"/>
      <point x="365" y="0" type="line"/>
      <point x="365" y="20" type="line"/>
      <point x="145" y="20" type="line"/>
    </contour>
    <contour>
      <point x="145" y="0" type="line"/>
      <point x="165" y="0" type="line"/>
      <point x="165" y="380" type="line"/>
      <point x="145" y="380" type="line"/>
    </contour>
    <contour>
      <point x="350" y="3" type="line"/>
      <point x="363" y="18" type="line"/>
      <point x="302" y="127" type="line"/>
      <point x="289" y="112" type="line"/>
    </contour>
    <contour>
      <point x="6" y="366" type="line"/>
      <point x="154" y="366" type="line"/>
      <point x="154" y="386" type="line"/>
      <point x="6" y="386" type="line"/>
    </contour>
    <contour>
      <point x="23" y="372" type="line"/>
      <point x="152" y="479" type="line"/>
      <point x="139" y="493" type="line"/>
      <point x="9" y="384" type="line"/>
    </contour>
    <contour>
      <point x="5" y="366" type="line"/>
      <point x="25" y="366" type="line"/>
      <point x="25" y="600" type="line"/>
      <point x="5" y="600" type="line"/>
    </contour>
    <contour>
      <point x="284" y="110" type="line"/>
      <point x="304" y="110" type="line"/>
      <point x="304" y="481" type="line"/>
      <point x="284" y="481" type="line"/>
    </contour>
    <contour>
      <point x="345" y="0" type="line"/>
      <point x="365" y="0" type="line"/>
      <point x="365" y="380" type="line"/>
      <point x="345" y="380" type="line"/>
    </contour>
    <contour>
      <point x="139" y="479" type="line"/>
      <point x="152" y="493" type="line"/>
      <point x="23" y="600" type="line"/>
      <point x="9" y="588" type="line"/>
    </contour>
    <contour>
      <point x="157" y="367" type="line"/>
      <point x="300" y="477" type="line"/>
      <point x="287" y="490" type="line"/>
      <point x="144" y="380" type="line"/>
    </contour>
    <contour>
      <point x="351" y="365" type="line"/>
      <point x="365" y="378" type="line"/>
      <point x="302" y="490" type="line"/>
      <point x="288" y="477" type="line"/>
    </contour>
    <contour>
      <point x="140" y="477" type="line"/>
      <point x="449" y="477" type="line"/>
      <point x="449" y="497" type="line"/>
      <point x="140" y="497" type="line"/>
    </contour>
    <contour>
      <point x="356" y="366" type="line"/>
      <point x="484" y="366" type="line"/>
      <point x="484" y="386" type="line"/>
      <point x="356" y="386" type="line"/>
    </contour>
    <contour>
      <point x="6" y="580" type="line"/>
      <point x="484" y="580" type="line"/>
      <point x="484" y="600" type="line"/>
      <point x="6" y="600" type="line"/>
    </contour>
    <contour>
      <point x="461" y="372" type="line"/>
      <point x="478" y="384" type="line"/>
      <point x="448" y="493" type="line"/>
      <point x="432" y="479" type="line"/>
    </contour>
    <contour>
      <point x="465" y="366" type="line"/>
      <point x="485" y="366" type="line"/>
      <point x="485" y="600" type="line"/>
      <point x="465" y="600" type="line"/>
    </contour>
    <contour>
      <point x="448" y="479" type="line"/>
      <point x="478" y="588" type="line"/>
      <point x="461" y="600" type="line"/>
      <point x="432" y="493" type="line"/>
    </contour>
  </outline>
</glyph>
<glyph name="W" format="2">
  <advance width="917"/>
  <unicode hex="0057"/>
  <anchor x="509" y="0" name="bottom"/>
  <anchor x="509" y="600" name="top"/>
  <outline>
    <contour>
      <point x="158" y="0" type="line"/>
      <point x="178" y="0" type="line"/>
      <point x="22" y="600" type="line"/>
      <point x="2" y="600" type="line"/>
    </contour>
    <contour>
      <point x="8" y="580" type="line"/>
      <point x="251" y="580" type="line"/>
      <point x="246" y="600" type="line"/>
      <point x="2" y="600" type="line"/>
    </contour>
    <contour>
      <point x="319" y="211" type="line"/>
      <point x="331" y="244" type="line"/>
      <point x="246" y="600" type="line"/>
      <point x="225" y="600" type="line"/>
    </contour>
    <contour>
      <point x="282" y="101" type="line"/>
      <point x="301" y="92" type="line"/>
      <point x="428" y="600" type="line"/>
      <point x="408" y="600" type="line"/>
    </contour>
    <contour>
      <point x="158" y="0" type="line"/>
      <point x="391" y="0" type="line"/>
      <point x="391" y="20" type="line"/>
      <point x="158" y="20" type="line"/>
    </contour>
    <contour>
      <point x="274" y="90" type="line"/>
      <point x="293" y="99" type="line"/>
      <point x="193" y="530" type="line"/>
      <point x="172" y="530" type="line"/>
    </contour>
    <contour>
      <point x="391" y="0" type="line"/>
      <point x="469" y="294" type="line"/>
      <point x="460" y="335" type="line"/>
      <point x="373" y="8" type="line"/>
    </contour>
    <contour>
      <point x="189" y="508" type="line"/>
      <point x="245" y="584" type="line"/>
      <point x="234" y="599" type="line"/>
      <point x="178" y="523" type="line"/>
    </contour>
    <contour>
      <point x="166" y="8" type="line"/>
      <point x="296" y="89" type="line"/>
      <point x="285" y="104" type="line"/>
      <point x="155" y="23" type="line"/>
    </contour>
    <contour>
      <point x="380" y="7" type="line"/>
      <point x="391" y="22" type="line"/>
      <point x="287" y="109" type="line"/>
      <point x="276" y="94" type="line"/>
    </contour>
    <contour>
      <point x="519" y="0" type="line"/>
      <point x="540" y="0" type="line"/>
      <point x="425" y="589" type="line"/>
      <point x="408" y="579" type="line"/>
    </contour>
    <contour>
      <point x="789" y="0" type="line"/>
      <point x="915" y="600" type="line"/>
      <point x="895" y="600" type="line"/>
      <point x="769" y="0" type="line"/>
    </contour>
    <contour>
      <point x="523" y="0" type="line"/>
      <point x="787" y="0" type="line"/>
      <point x="787" y="20" type="line"/>
      <point x="523" y="20" type="line"/>
    </contour>
    <contour>
      <point x="770" y="84" type="line"/>
      <point x="859" y="538" type="line"/>
      <point x="840" y="538" type="line"/>
      <point x="751" y="93" type="line"/>
    </contour>
    <contour>
      <point x="773" y="9" type="line"/>
      <point x="788" y="22" type="line"/>
      <point x="768" y="101" type="line"/>
      <point x="751" y="87" type="line"/>
    </contour>
    <contour>
      <point x="412" y="580" type="line"/>
      <point x="600" y="580" type="line"/>
      <point x="595" y="600" type="line"/>
      <point x="412" y="600" type="line"/>
    </contour>
    <contour>
      <point x="689" y="152" type="line"/>
      <point x="698" y="204" type="line"/>
      <point x="603" y="600" type="line"/>
      <point x="585" y="600" type="line"/>
    </contour>
    <contour>
      <point x="657" y="58" type="line"/>
      <point x="678" y="68" type="line"/>
      <point x="787" y="600" type="line"/>
      <point x="767" y="600" type="line"/>
    </contour>
    <contour>
      <point x="655" y="58" type="line"/>
      <point x="674" y="66" type="line"/>
      <point x="560" y="530" type="line"/>
      <point x="540" y="530" type="line"/>
    </contour>
    <contour>
      <point x="771" y="580" type="line"/>
      <point x="899" y="580" type="line"/>
      <point x="905" y="600" type="line"/>
      <point x="778" y="600" type="line"/>
    </contour>
    <contour>
      <point x="557" y="508" type="line"/>
      <point x="603" y="580" type="line"/>
      <point x="592" y="595" type="line"/>
      <point x="546" y="523" type="line"/>
    </contour>
    <contour>
      <point x="849" y="514" type="line"/>
      <point x="902" y="579" type="line"/>
      <point x="891" y="595" type="line"/>
      <point x="838" y="530" type="line"/>
    </contour>
    <contour>
      <point x="188" y="506" type="line"/>
      <point x="199" y="521" type="line"/>
      <point x="33" y="597" type="line"/>
      <point x="22" y="582" type="line"/>
    </contour>
    <contour>
      <point x="554" y="508" type="line"/>
      <point x="565" y="523" type="line"/>
      <point x="422" y="587" type="line"/>
      <point x="411" y="572" type="line"/>
    </contour>
    <contour>
      <point x="844" y="514" type="line"/>
      <point x="855" y="530" type="line"/>
      <point x="783" y="597" type="line"/>
      <point x="772" y="581" type="line"/>
    </contour>
    <contour>
      <point x="359" y="35" type="line"/>
      <point x="451" y="390" type="line"/>
      <point x="440" y="427" type="line"/>
      <point x="341" y="53" type="line"/>
    </contour>
    <contour>
      <point x="765" y="81" type="line"/>
      <point x="757" y="100" type="line"/>
      <point x="522" y="23" type="line"/>
      <point x="532" y="7" type="line"/>
    </contour>
  </outline>
</glyph>
<glyph name="X" format="2">
  <advance width="589"/>
  <unicode hex="0058"/>
  <outline>
    <contour>
      <point x="562" y="0" type="line"/>
      <point x="584" y="0" type="line"/>
      <point x="406" y="338" type="line"/>
      <point x="392" y="324" type="line"/>
    </contour>
    <contour>
      <point x="22" y="0" type="line"/>
      <point x="206" y="0" type="line"/>
      <point x="206" y="20" type="line"/>
      <point x="22" y="20" type="line"/>
    </contour>
    <contour>
      <point x="42" y="5" type="line"/>
      <point x="221" y="96" type="line"/>
      <point x="208" y="109" type="line"/>
      <point x="29" y="18" type="line"/>
    </contour>
    <contour>
      <point x="28" y="0" type="line"/>
      <point x="211" y="267" type="line"/>
      <point x="196" y="279" type="line"/>
      <point x="5" y="0" type="line"/>
    </contour>
    <contour>
      <point x="195" y="4" type="line"/>
      <point x="216" y="16" type="line"/>
      <point x="223" y="111" type="line"/>
      <point x="204" y="98" type="line"/>
    </contour>
    <contour>
      <point x="207" y="0" type="line"/>
      <point x="287" y="126" type="line"/>
      <point x="279" y="145" type="line"/>
      <point x="183" y="0" type="line"/>
    </contour>
    <contour>
      <point x="327" y="0" type="line"/>
      <point x="344" y="14" type="line"/>
      <point x="268" y="186" type="line"/>
      <point x="253" y="170" type="line"/>
    </contour>
    <contour>
      <point x="335" y="5" type="line"/>
      <point x="468" y="93" type="line"/>
      <point x="455" y="106" type="line"/>
      <point x="328" y="22" type="line"/>
    </contour>
    <contour>
      <point x="213" y="85" type="line"/>
      <point x="351" y="296" type="line"/>
      <point x="337" y="310" type="line"/>
      <point x="198" y="97" type="line"/>
    </contour>
    <contour>
      <point x="327" y="0" type="line"/>
      <point x="572" y="0" type="line"/>
      <point x="572" y="20" type="line"/>
      <point x="327" y="20" type="line"/>
    </contour>
    <contour>
      <point x="197" y="261" type="line"/>
      <point x="212" y="274" type="line"/>
      <point x="36" y="600" type="line"/>
      <point x="16" y="600" type="line"/>
    </contour>
    <contour>
      <point x="557" y="7" type="line"/>
      <point x="569" y="21" type="line"/>
      <point x="461" y="110" type="line"/>
      <point x="448" y="97" type="line"/>
    </contour>
    <contour>
      <point x="206" y="262" type="line"/>
      <point x="362" y="308" type="line"/>
      <point x="349" y="321" type="line"/>
      <point x="193" y="275" type="line"/>
    </contour>
    <contour>
      <point x="455" y="86" type="line"/>
      <point x="469" y="100" type="line"/>
      <point x="356" y="320" type="line"/>
      <point x="342" y="306" type="line"/>
    </contour>
    <contour>
      <point x="351" y="291" type="line"/>
      <point x="365" y="305" type="line"/>
      <point x="247" y="518" type="line"/>
      <point x="233" y="504" type="line"/>
    </contour>
    <contour>
      <point x="242" y="499" type="line"/>
      <point x="244" y="518" type="line"/>
      <point x="49" y="589" type="line"/>
      <point x="36" y="576" type="line"/>
    </contour>
    <contour>
      <point x="348" y="300" type="line"/>
      <point x="409" y="324" type="line"/>
      <point x="396" y="337" type="line"/>
      <point x="335" y="313" type="line"/>
    </contour>
    <contour>
      <point x="27" y="580" type="line"/>
      <point x="269" y="580" type="line"/>
      <point x="269" y="600" type="line"/>
      <point x="27" y="600" type="line"/>
    </contour>
    <contour>
      <point x="244" y="500" type="line"/>
      <point x="274" y="581" type="line"/>
      <point x="261" y="594" type="line"/>
      <point x="231" y="513" type="line"/>
    </contour>
    <contour>
      <point x="353" y="303" type="line"/>
      <point x="492" y="524" type="line"/>
      <point x="475" y="533" type="line"/>
      <point x="335" y="314" type="line"/>
    </contour>
    <contour>
      <point x="300" y="388" type="line"/>
      <point x="417" y="586" type="line"/>
      <point x="403" y="600" type="line"/>
      <point x="290" y="410" type="line"/>
    </contour>
    <contour>
      <point x="324" y="454" type="line"/>
      <point x="335" y="474" type="line"/>
      <point x="269" y="600" type="line"/>
      <point x="255" y="586" type="line"/>
    </contour>
    <contour>
      <point x="409" y="325" type="line"/>
      <point x="584" y="600" type="line"/>
      <point x="561" y="600" type="line"/>
      <point x="386" y="326" type="line"/>
    </contour>
    <contour>
      <point x="476" y="515" type="line"/>
      <point x="489" y="528" type="line"/>
      <point x="416" y="594" type="line"/>
      <point x="403" y="581" type="line"/>
    </contour>
    <contour>
      <point x="483" y="515" type="line"/>
      <point x="568" y="582" type="line"/>
      <point x="555" y="595" type="line"/>
      <point x="473" y="532" type="line"/>
    </contour>
    <contour>
      <point x="403" y="580" type="line"/>
      <point x="568" y="580" type="line"/>
      <point x="568" y="600" type="line"/>
      <point x="403" y="600" type="line"/>
    </contour>
  </outline>
</glyph>
<glyph name="Z" format="2">
  <advance width="528"/>
  <unicode hex="005A"/>
  <anchor x="264" y="0" name="bottom"/>
  <anchor x="264" y="300" name="center"/>
  <anchor x="264" y="600" name="top"/>
  <outline>
    <contour>
      <point x="11" y="20" type="line"/>
      <point x="520" y="20" type="line"/>
    </contour>
    <contour>
      <point x="523" y="0" type="line"/>
      <point x="523" y="238" type="line"/>
      <point x="503" y="238" type="line"/>
      <point x="503" y="0" type="line"/>
    </contour>
    <contour>
      <point x="333" y="222" type="line"/>
      <point x="523" y="222" type="line"/>
      <point x="523" y="241" type="line"/>
      <point x="333" y="241" type="line"/>
    </contour>
    <contour>
      <point x="485" y="124" type="line"/>
      <point x="519" y="225" type="line"/>
      <point x="507" y="240" type="line"/>
      <point x="471" y="138" type="line"/>
    </contour>
    <contour>
      <point x="497" y="13" type="line"/>
      <point x="511" y="27" type="line"/>
      <point x="490" y="142" type="line"/>
      <point x="475" y="128" type="line"/>
    </contour>
    <contour>
      <point x="238" y="125" type="line"/>
      <point x="485" y="125" type="line"/>
      <point x="485" y="145" type="line"/>
      <point x="238" y="145" type="line"/>
    </contour>
    <contour>
      <point x="249" y="130" type="line"/>
      <point x="348" y="227" type="line"/>
      <point x="337" y="243" type="line"/>
      <point x="239" y="146" type="line"/>
    </contour>
    <contour>
      <point x="31" y="7" type="line"/>
      <point x="266" y="139" type="line"/>
      <point x="253" y="157" type="line"/>
      <point x="18" y="24" type="line"/>
    </contour>
    <contour>
      <point x="20" y="0" type="line"/>
      <point x="203" y="371" type="line"/>
      <point x="181" y="372" type="line"/>
      <point x="-3" y="0" type="line"/>
    </contour>
    <contour>
      <point x="6" y="580" type="line"/>
      <point x="507" y="580" type="line"/>
      <point x="507" y="600" type="line"/>
      <point x="6" y="600" type="line"/>
    </contour>
    <contour>
      <point x="6" y="0" type="line"/>
      <point x="520" y="0" type="line"/>
      <point x="520" y="20" type="line"/>
      <point x="13" y="20" type="line"/>
    </contour>
    <contour>
      <point x="348" y="230" type="line"/>
      <point x="518" y="600" type="line"/>
      <point x="496" y="600" type="line"/>
      <point x="328" y="232" type="line"/>
    </contour>
    <contour>
      <point x="25" y="365" type="line"/>
      <point x="25" y="600" type="line"/>
      <point x="5" y="599" type="line"/>
      <point x="5" y="365" type="line"/>
    </contour>
    <contour>
      <point x="10" y="365" type="line"/>
      <point x="195" y="365" type="line"/>
      <point x="195" y="382" type="line"/>
      <point x="10" y="382" type="line"/>
    </contour>
    <contour>
      <point x="195" y="360" type="line"/>
      <point x="408" y="479" type="line"/>
      <point x="398" y="494" type="line"/>
      <point x="180" y="374" type="line"/>
    </contour>
    <contour>
      <point x="160" y="479" type="line"/>
      <point x="411" y="479" type="line"/>
      <point x="411" y="499" type="line"/>
      <point x="160" y="499" type="line"/>
    </contour>
    <contour>
      <point x="24" y="370" type="line"/>
      <point x="176" y="487" type="line"/>
      <point x="160" y="495" type="line"/>
      <point x="9" y="380" type="line"/>
    </contour>
    <contour>
      <point x="256" y="135" type="line"/>
      <point x="430" y="503" type="line"/>
      <point x="405" y="498" type="line"/>
      <point x="239" y="146" type="line"/>
    </contour>
    <contour>
      <point x="410" y="478" type="line"/>
      <point x="507" y="581" type="line"/>
      <point x="503" y="600" type="line"/>
      <point x="399" y="495" type="line"/>
    </contour>
    <contour>
      <point x="159" y="483" type="line"/>
      <point x="173" y="496" type="line"/>
      <point x="19" y="594" type="line"/>
      <point x="6" y="582" type="line"/>
    </contour>
  </outline>
</glyph>
<glyph name="AE" format="2">
  <advance width="671"/>
  <unicode hex="00C6"/>
  <anchor x="336" y="0" name="bottom"/>
  <anchor x="402" y="600" name="top"/>
  <outline>
    <contour>
      <point x="5" y="0" type="line"/>
      <point x="25" y="0" type="line"/>
      <point x="218" y="595" type="line"/>
      <point x="199" y="600" type="line"/>
    </contour>
    <contour>
      <point x="11" y="0" type="line"/>
      <point x="205" y="0" type="line"/>
      <point x="205" y="20" type="line"/>
      <point x="11" y="20" type="line"/>
    </contour>
    <contour>
      <point x="26" y="1" type="line"/>
      <point x="190" y="80" type="line"/>
      <point x="175" y="93" type="line"/>
      <point x="12" y="15" type="line"/>
    </contour>
    <contour>
      <point x="194" y="1" type="line"/>
      <point x="208" y="15" type="line"/>
      <point x="195" y="93" type="line"/>
      <point x="180" y="80" type="line"/>
    </contour>
    <contour>
      <point x="205" y="0" type="line"/>
      <point x="229" y="91" type="line"/>
      <point x="215" y="108" type="line"/>
      <point x="186" y="5" type="line"/>
    </contour>
    <contour>
      <point x="214" y="80" type="line"/>
      <point x="228" y="94" type="line"/>
      <point x="224" y="172" type="line"/>
      <point x="209" y="159" type="line"/>
    </contour>
    <contour>
      <point x="217" y="80" type="line"/>
      <point x="302" y="80" type="line"/>
      <point x="302" y="100" type="line"/>
      <point x="217" y="100" type="line"/>
    </contour>
    <contour>
      <point x="286" y="0" type="line"/>
      <point x="306" y="0" type="line"/>
      <point x="306" y="94" type="line"/>
      <point x="286" y="94" type="line"/>
    </contour>
    <contour>
      <point x="214" y="158" type="line"/>
      <point x="263" y="200" type="line"/>
      <point x="253" y="219" type="line"/>
      <point x="206" y="176" type="line"/>
    </contour>
    <contour>
      <point x="299" y="0" type="line"/>
      <point x="431" y="89" type="line"/>
      <point x="418" y="102" type="line"/>
      <point x="286" y="13" type="line"/>
    </contour>
    <contour>
      <point x="220" y="162" type="line"/>
      <point x="421" y="162" type="line"/>
      <point x="421" y="182" type="line"/>
      <point x="220" y="182" type="line"/>
    </contour>
    <contour>
      <point x="300" y="80" type="line"/>
      <point x="431" y="161" type="line"/>
      <point x="415" y="174" type="line"/>
      <point x="286" y="94" type="line"/>
    </contour>
    <contour>
      <point x="257" y="198" type="line"/>
      <point x="296" y="198" type="line"/>
      <point x="296" y="218" type="line"/>
      <point x="257" y="218" type="line"/>
    </contour>
    <contour>
      <point x="191" y="80" type="line"/>
      <point x="326" y="538" type="line"/>
      <point x="307" y="543" type="line"/>
      <point x="172" y="85" type="line"/>
    </contour>
    <contour>
      <point x="296" y="0" type="line"/>
      <point x="656" y="0" type="line"/>
      <point x="656" y="20" type="line"/>
      <point x="296" y="20" type="line"/>
    </contour>
    <contour>
      <point x="417" y="168" type="line"/>
      <point x="426" y="186" type="line"/>
      <point x="296" y="218" type="line"/>
      <point x="287" y="200" type="line"/>
    </contour>
    <contour>
      <point x="306" y="204" type="line"/>
      <point x="306" y="391" type="line"/>
      <point x="286" y="335" type="line"/>
      <point x="286" y="205" type="line"/>
    </contour>
    <contour>
      <point x="437" y="95" type="line"/>
      <point x="475" y="165" type="line"/>
      <point x="462" y="190" type="line"/>
      <point x="422" y="106" type="line"/>
    </contour>
    <contour>
      <point x="422" y="87" type="line"/>
      <point x="626" y="87" type="line"/>
      <point x="626" y="107" type="line"/>
      <point x="422" y="107" type="line"/>
    </contour>
    <contour>
      <point x="265" y="200" type="line"/>
      <point x="365" y="595" type="line"/>
      <point x="346" y="600" type="line"/>
      <point x="246" y="206" type="line"/>
    </contour>
    <contour>
      <point x="416" y="97" type="line"/>
      <point x="436" y="97" type="line"/>
      <point x="436" y="521" type="line"/>
      <point x="416" y="521" type="line"/>
    </contour>
    <contour>
      <point x="456" y="162" type="line"/>
      <point x="476" y="172" type="line"/>
      <point x="476" y="238" type="line"/>
      <point x="456" y="248" type="line"/>
    </contour>
    <contour>
      <point x="646" y="10" type="line"/>
      <point x="659" y="22" type="line"/>
      <point x="621" y="107" type="line"/>
      <point x="606" y="96" type="line"/>
    </contour>
    <contour>
      <point x="466" y="213" type="line"/>
      <point x="479" y="237" type="line"/>
      <point x="437" y="323" type="line"/>
      <point x="422" y="310" type="line"/>
    </contour>
    <contour>
      <point x="307" y="524" type="line"/>
      <point x="324" y="534" type="line"/>
      <point x="215" y="597" type="line"/>
      <point x="197" y="588" type="line"/>
    </contour>
    <contour>
      <point x="429" y="307" type="line"/>
      <point x="566" y="307" type="line"/>
      <point x="566" y="327" type="line"/>
      <point x="429" y="327" type="line"/>
    </contour>
    <contour>
      <point x="462" y="160" type="line"/>
      <point x="656" y="160" type="line"/>
      <point x="656" y="180" type="line"/>
      <point x="462" y="181" type="line"/>
    </contour>
    <contour>
      <point x="437" y="310" type="line"/>
      <point x="479" y="370" type="line"/>
      <point x="466" y="385" type="line"/>
      <point x="422" y="321" type="line"/>
    </contour>
    <contour>
      <point x="319" y="524" type="line"/>
      <point x="356" y="584" type="line"/>
      <point x="341" y="600" type="line"/>
      <point x="312" y="543" type="line"/>
    </contour>
    <contour>
      <point x="623" y="87" type="line"/>
      <point x="659" y="165" type="line"/>
      <point x="646" y="180" type="line"/>
      <point x="606" y="96" type="line"/>
    </contour>
    <contour>
      <point x="466" y="225" type="line"/>
      <point x="586" y="225" type="line"/>
      <point x="586" y="245" type="line"/>
      <point x="466" y="245" type="line"/>
    </contour>
    <contour>
      <point x="199" y="580" type="line"/>
      <point x="375" y="580" type="line"/>
      <point x="375" y="600" type="line"/>
      <point x="199" y="600" type="line"/>
    </contour>
    <contour>
      <point x="576" y="225" type="line"/>
      <point x="589" y="237" type="line"/>
      <point x="561" y="327" type="line"/>
      <point x="546" y="316" type="line"/>
    </contour>
    <contour>
      <point x="646" y="0" type="line"/>
      <point x="666" y="0" type="line"/>
      <point x="666" y="180" type="line"/>
      <point x="646" y="180" type="line"/>
    </contour>
    <contour>
      <point x="462" y="420" type="line"/>
      <point x="475" y="435" type="line"/>
      <point x="437" y="515" type="line"/>
      <point x="422" y="504" type="line"/>
    </contour>
    <contour>
      <point x="456" y="365" type="line"/>
      <point x="476" y="365" type="line"/>
      <point x="476" y="438" type="line"/>
      <point x="456" y="438" type="line"/>
    </contour>
    <contour>
      <point x="418" y="506" type="line"/>
      <point x="431" y="519" type="line"/>
      <point x="365" y="595" type="line"/>
      <point x="352" y="582" type="line"/>
    </contour>
    <contour>
      <point x="563" y="307" type="line"/>
      <point x="589" y="370" type="line"/>
      <point x="576" y="385" type="line"/>
      <point x="546" y="316" type="line"/>
    </contour>
    <contour>
      <point x="576" y="225" type="line"/>
      <point x="596" y="225" type="line"/>
      <point x="596" y="385" type="line"/>
      <point x="576" y="385" type="line"/>
    </contour>
    <contour>
      <point x="456" y="365" type="line"/>
      <point x="596" y="365" type="line"/>
      <point x="596" y="385" type="line"/>
      <point x="456" y="385" type="line"/>
    </contour>
    <contour>
      <point x="422" y="503" type="line"/>
      <point x="631" y="503" type="line"/>
      <point x="631" y="523" type="line"/>
      <point x="422" y="523" type="line"/>
    </contour>
    <contour>
      <point x="462" y="420" type="line"/>
      <point x="656" y="420" type="line"/>
      <point x="656" y="440" type="line"/>
      <point x="462" y="440" type="line"/>
    </contour>
    <contour>
      <point x="326" y="580" type="line"/>
      <point x="656" y="580" type="line"/>
      <point x="656" y="600" type="line"/>
      <point x="326" y="600" type="line"/>
    </contour>
    <contour>
      <point x="646" y="427" type="line"/>
      <point x="659" y="442" type="line"/>
      <point x="633" y="523" type="line"/>
      <point x="615" y="514" type="line"/>
    </contour>
    <contour>
      <point x="630" y="506" type="line"/>
      <point x="659" y="580" type="line"/>
      <point x="642" y="593" type="line"/>
      <point x="615" y="520" type="line"/>
    </contour>
    <contour>
      <point x="646" y="420" type="line"/>
      <point x="666" y="420" type="line"/>
      <point x="666" y="600" type="line"/>
      <point x="646" y="600" type="line"/>
    </contour>
  </outline>
</glyph>
<glyph name="Eth" format="2">
  <advance width="555"/>
  <unicode hex="00D0"/>
  <outline>
    <contour>
      <point x="239" y="428" type="line"/>
      <point x="252" y="444" type="line"/>
      <point x="201" y="524" type="line"/>
      <point x="191" y="507" type="line"/>
    </contour>
    <contour>
      <point x="55" y="7" type="line"/>
      <point x="205" y="108" type="line"/>
      <point x="180" y="111" type="line"/>
      <point x="36" y="16" type="line"/>
    </contour>
    <contour>
      <point x="51" y="0" type="line"/>
      <point x="402" y="0" type="line"/>
      <point x="407" y="20" type="line"/>
      <point x="51" y="20" type="line"/>
    </contour>
    <contour>
      <point x="33" y="385" type="line"/>
      <point x="52" y="385" type="line"/>
      <point x="52" y="600" type="line"/>
      <point x="33" y="600" type="line"/>
    </contour>
    <contour>
      <point x="202" y="106" type="line"/>
      <point x="259" y="180" type="line"/>
      <point x="237" y="185" type="line"/>
      <point x="182" y="112" type="line"/>
    </contour>
    <contour>
      <point x="196" y="95" type="line"/>
      <point x="398" y="95" type="line"/>
      <point x="398" y="113" type="line"/>
      <point x="196" y="113" type="line"/>
    </contour>
    <contour>
      <point x="178" y="95" type="line"/>
      <point x="198" y="95" type="line"/>
      <point x="198" y="519" type="line"/>
      <point x="178" y="519" type="line"/>
    </contour>
    <contour>
      <point x="236" y="168" type="line"/>
      <point x="311" y="168" type="line"/>
      <point x="311" y="187" type="line"/>
      <point x="236" y="187" type="line"/>
    </contour>
    <contour>
      <point x="389" y="9" type="line"/>
      <point x="409" y="16" type="line"/>
      <point x="405" y="109" type="line"/>
      <point x="388" y="100" type="line"/>
    </contour>
    <contour>
      <point x="390" y="98" type="line"/>
      <point x="407" y="108" type="line"/>
      <point x="318" y="185" type="line"/>
      <point x="303" y="175" type="line"/>
    </contour>
    <contour>
      <point x="317" y="172" type="line"/>
      <point x="345" y="211" type="line"/>
      <point x="330" y="223" type="line"/>
      <point x="302" y="184" type="line"/>
    </contour>
    <contour>
      <point x="236" y="376" type="line"/>
      <point x="256" y="376" type="line"/>
      <point x="256" y="437" type="line"/>
      <point x="236" y="437" type="line"/>
    </contour>
    <contour>
      <point x="401" y="94" type="line"/>
      <point x="492" y="184" type="line"/>
      <point x="474" y="193" type="line"/>
      <point x="389" y="109" type="line"/>
    </contour>
    <contour>
      <point x="402" y="0" type="line"/>
      <point x="550" y="146" type="line"/>
      <point x="530" y="155" type="line"/>
      <point x="388" y="14" type="line"/>
    </contour>
    <contour>
      <point x="475" y="176" type="line"/>
      <point x="487" y="193" type="line"/>
      <point x="332" y="225" type="line"/>
      <point x="328" y="208" type="line"/>
    </contour>
    <contour>
      <point x="328" y="208" type="line"/>
      <point x="348" y="210" type="line"/>
      <point x="348" y="405" type="line"/>
      <point x="328" y="405" type="line"/>
    </contour>
    <contour>
      <point x="532" y="140" type="line"/>
      <point x="543" y="158" type="line"/>
      <point x="484" y="193" type="line"/>
      <point x="476" y="175" type="line"/>
    </contour>
    <contour>
      <point x="238" y="429" type="line"/>
      <point x="313" y="429" type="line"/>
      <point x="313" y="448" type="line"/>
      <point x="238" y="448" type="line"/>
    </contour>
    <contour>
      <point x="335" y="391" type="line"/>
      <point x="349" y="406" type="line"/>
      <point x="312" y="447" type="line"/>
      <point x="300" y="432" type="line"/>
    </contour>
    <contour>
      <point x="181" y="510" type="line"/>
      <point x="396" y="510" type="line"/>
      <point x="396" y="526" type="line"/>
      <point x="181" y="526" type="line"/>
    </contour>
    <contour>
      <point x="472" y="184" type="line"/>
      <point x="492" y="184" type="line"/>
      <point x="492" y="434" type="line"/>
      <point x="472" y="434" type="line"/>
    </contour>
    <contour>
      <point x="314" y="432" type="line"/>
      <point x="400" y="513" type="line"/>
      <point x="389" y="526" type="line"/>
      <point x="296" y="439" type="line"/>
    </contour>
    <contour>
      <point x="49" y="580" type="line"/>
      <point x="409" y="580" type="line"/>
      <point x="412" y="600" type="line"/>
      <point x="49" y="600" type="line"/>
    </contour>
    <contour>
      <point x="335" y="387" type="line"/>
      <point x="485" y="427" type="line"/>
      <point x="471" y="442" type="line"/>
      <point x="329" y="404" type="line"/>
    </contour>
    <contour>
      <point x="483" y="419" type="line"/>
      <point x="493" y="434" type="line"/>
      <point x="396" y="523" type="line"/>
      <point x="385" y="510" type="line"/>
    </contour>
    <contour>
      <point x="550" y="146" type="line"/>
      <point x="550" y="469" type="line"/>
      <point x="530" y="460" type="line"/>
      <point x="530" y="150" type="line"/>
    </contour>
    <contour>
      <point x="401" y="502" type="line"/>
      <point x="411" y="580" type="line"/>
      <point x="395" y="591" type="line"/>
      <point x="386" y="520" type="line"/>
    </contour>
    <contour>
      <point x="486" y="426" type="line"/>
      <point x="533" y="457" type="line"/>
      <point x="527" y="476" type="line"/>
      <point x="476" y="443" type="line"/>
    </contour>
    <contour>
      <point x="531" y="459" type="line"/>
      <point x="550" y="469" type="line"/>
      <point x="412" y="600" type="line"/>
      <point x="400" y="585" type="line"/>
    </contour>
    <contour>
      <point x="186" y="510" type="line"/>
      <point x="199" y="526" type="line"/>
      <point x="50" y="592" type="line"/>
      <point x="40" y="575" type="line"/>
    </contour>
    <contour>
      <point x="109" y="302" type="line"/>
      <point x="129" y="312" type="line"/>
      <point x="21" y="394" type="line"/>
      <point x="7" y="383" type="line"/>
    </contour>
    <contour>
      <point x="5" y="221" type="line"/>
      <point x="24" y="221" type="line"/>
      <point x="24" y="394" type="line"/>
      <point x="5" y="394" type="line"/>
    </contour>
    <contour>
      <point x="109" y="313" type="line"/>
      <point x="7" y="232" type="line"/>
      <point x="21" y="221" type="line"/>
      <point x="129" y="303" type="line"/>
    </contour>
    <contour>
      <point x="45" y="394" type="line"/>
      <point x="7" y="394" type="line"/>
      <point x="7" y="373" type="line"/>
      <point x="45" y="373" type="line"/>
    </contour>
    <contour>
      <point x="192" y="316" type="line"/>
      <point x="107" y="316" type="line"/>
      <point x="107" y="299" type="line"/>
      <point x="192" y="299" type="line"/>
    </contour>
    <contour>
      <point x="45" y="242" type="line"/>
      <point x="7" y="242" type="line"/>
      <point x="7" y="221" type="line"/>
      <point x="45" y="221" type="line"/>
    </contour>
    <contour>
      <point x="288" y="302" type="line"/>
      <point x="316" y="383" type="line"/>
      <point x="299" y="394" type="line"/>
      <point x="270" y="312" type="line"/>
    </contour>
    <contour>
      <point x="318" y="221" type="line"/>
      <point x="318" y="394" type="line"/>
      <point x="299" y="394" type="line"/>
      <point x="299" y="221" type="line"/>
    </contour>
    <contour>
      <point x="288" y="313" type="line"/>
      <point x="270" y="303" type="line"/>
      <point x="299" y="221" type="line"/>
      <point x="316" y="232" type="line"/>
    </contour>
    <contour>
      <point x="247" y="394" type="line"/>
      <point x="237" y="373" type="line"/>
      <point x="316" y="373" type="line"/>
      <point x="316" y="394" type="line"/>
    </contour>
    <contour>
      <point x="184" y="316" type="line"/>
      <point x="184" y="299" type="line"/>
      <point x="290" y="299" type="line"/>
      <point x="290" y="316" type="line"/>
    </contour>
    <contour>
      <point x="236" y="242" type="line"/>
      <point x="236" y="221" type="line"/>
      <point x="316" y="221" type="line"/>
      <point x="316" y="242" type="line"/>
    </contour>
    <contour>
      <point x="180" y="302" type="line"/>
      <point x="192" y="314" type="line"/>
      <point x="45" y="394" type="line"/>
      <point x="29" y="381" type="line"/>
    </contour>
    <contour>
      <point x="180" y="313" type="line"/>
      <point x="29" y="234" type="line"/>
      <point x="45" y="221" type="line"/>
      <point x="192" y="301" type="line"/>
    </contour>
    <contour>
      <point x="33" y="0" type="line"/>
      <point x="52" y="0" type="line"/>
      <point x="52" y="236" type="line"/>
      <point x="33" y="236" type="line"/>
    </contour>
    <contour>
      <point x="197" y="300" type="line"/>
      <point x="263" y="381" type="line"/>
      <point x="247" y="394" type="line"/>
      <point x="184" y="314" type="line"/>
    </contour>
    <contour>
      <point x="197" y="315" type="line"/>
      <point x="184" y="301" type="line"/>
      <point x="247" y="221" type="line"/>
      <point x="263" y="234" type="line"/>
    </contour>
    <contour>
      <point x="236" y="180" type="line"/>
      <point x="256" y="180" type="line"/>
      <point x="256" y="235" type="line"/>
      <point x="236" y="235" type="line"/>
    </contour>
  </outline>
</glyph>
<glyph name="Thorn" format="2">
  <advance width="504"/>
  <unicode hex="00DE"/>
  <outline>
    <contour>
      <point x="5" y="599" type="line"/>
      <point x="5" y="0" type="line"/>
      <point x="25" y="0" type="line"/>
      <point x="25" y="599" type="line"/>
    </contour>
    <contour>
      <point x="222" y="127" type="line"/>
      <point x="222" y="0" type="line"/>
      <point x="242" y="0" type="line"/>
      <point x="242" y="127" type="line"/>
    </contour>
    <contour>
      <point x="235" y="20" type="line"/>
      <point x="10" y="20" type="line"/>
      <point x="9" y="0" type="line"/>
      <point x="235" y="0" type="line"/>
    </contour>
    <contour>
      <point x="350" y="138" type="line"/>
      <point x="222" y="138" type="line"/>
      <point x="222" y="118" type="line"/>
      <point x="350" y="118" type="line"/>
    </contour>
    <contour>
      <point x="355" y="500" type="line"/>
      <point x="235" y="500" type="line"/>
      <point x="235" y="480" type="line"/>
      <point x="356" y="480" type="line"/>
    </contour>
    <contour>
      <point x="204" y="351" type="line"/>
      <point x="204" y="265" type="line"/>
      <point x="223" y="265" type="line"/>
      <point x="223" y="351" type="line"/>
    </contour>
    <contour>
      <point x="443" y="359" type="line"/>
      <point x="443" y="256" type="line"/>
      <point x="462" y="256" type="line"/>
      <point x="462" y="359" type="line"/>
    </contour>
    <contour>
      <point x="18" y="0" type="line"/>
      <point x="164" y="112" type="line"/>
      <point x="151" y="125" type="line"/>
      <point x="5" y="13" type="line"/>
    </contour>
    <contour>
      <point x="229" y="0" type="line"/>
      <point x="242" y="13" type="line"/>
      <point x="167" y="125" type="line"/>
      <point x="154" y="112" type="line"/>
    </contour>
    <contour>
      <point x="149" y="110" type="line"/>
      <point x="169" y="110" type="line"/>
      <point x="169" y="505" type="line"/>
      <point x="149" y="508" type="line"/>
    </contour>
    <contour>
      <point x="233" y="112" type="line"/>
      <point x="246" y="130" type="line"/>
      <point x="172" y="208" type="line"/>
      <point x="163" y="188" type="line"/>
    </contour>
    <contour>
      <point x="353" y="398" type="line"/>
      <point x="375" y="397" type="line"/>
      <point x="361" y="489" type="line"/>
      <point x="337" y="495" type="line"/>
    </contour>
    <contour>
      <point x="347" y="403" type="line"/>
      <point x="452" y="343" type="line"/>
      <point x="462" y="359" type="line"/>
      <point x="361" y="417" type="line"/>
    </contour>
    <contour>
      <point x="339" y="487" type="line"/>
      <point x="486" y="385" type="line"/>
      <point x="499" y="401" type="line"/>
      <point x="355" y="500" type="line"/>
    </contour>
    <contour>
      <point x="451" y="346" type="line"/>
      <point x="496" y="385" type="line"/>
      <point x="486" y="399" type="line"/>
      <point x="440" y="361" type="line"/>
    </contour>
    <contour>
      <point x="477" y="401" type="line"/>
      <point x="477" y="217" type="line"/>
      <point x="499" y="217" type="line"/>
      <point x="499" y="401" type="line"/>
    </contour>
    <contour>
      <point x="335" y="133" type="line"/>
      <point x="350" y="118" type="line"/>
      <point x="499" y="217" type="line"/>
      <point x="488" y="233" type="line"/>
    </contour>
    <contour>
      <point x="453" y="275" type="line"/>
      <point x="443" y="261" type="line"/>
      <point x="489" y="213" type="line"/>
      <point x="491" y="232" type="line"/>
    </contour>
    <contour>
      <point x="344" y="210" type="line"/>
      <point x="339" y="124" type="line"/>
      <point x="359" y="128" type="line"/>
      <point x="363" y="214" type="line"/>
    </contour>
    <contour>
      <point x="352" y="213" type="line"/>
      <point x="357" y="194" type="line"/>
      <point x="454" y="252" type="line"/>
      <point x="447" y="267" type="line"/>
    </contour>
    <contour>
      <point x="364" y="215" type="line"/>
      <point x="169" y="215" type="line"/>
      <point x="169" y="195" type="line"/>
      <point x="353" y="195" type="line"/>
    </contour>
    <contour>
      <point x="361" y="417" type="line"/>
      <point x="163" y="417" type="line"/>
      <point x="163" y="397" type="line"/>
      <point x="361" y="397" type="line"/>
    </contour>
    <contour>
      <point x="206" y="278" type="line"/>
      <point x="157" y="213" type="line"/>
      <point x="168" y="197" type="line"/>
      <point x="226" y="270" type="line"/>
    </contour>
    <contour>
      <point x="266" y="268" type="line"/>
      <point x="350" y="201" type="line"/>
      <point x="361" y="216" type="line"/>
      <point x="285" y="276" type="line"/>
    </contour>
    <contour>
      <point x="285" y="281" type="line"/>
      <point x="213" y="281" type="line"/>
      <point x="213" y="264" type="line"/>
      <point x="285" y="264" type="line"/>
    </contour>
    <contour>
      <point x="270" y="351" type="line"/>
      <point x="204" y="351" type="line"/>
      <point x="204" y="332" type="line"/>
      <point x="273" y="332" type="line"/>
    </contour>
    <contour>
      <point x="257" y="343" type="line"/>
      <point x="279" y="335" type="line"/>
      <point x="371" y="397" type="line"/>
      <point x="359" y="410" type="line"/>
    </contour>
    <contour>
      <point x="298" y="321" type="line"/>
      <point x="298" y="295" type="line"/>
      <point x="317" y="295" type="line"/>
      <point x="317" y="320" type="line"/>
    </contour>
    <contour>
      <point x="312" y="308" type="line"/>
      <point x="456" y="350" type="line"/>
      <point x="450" y="365" type="line"/>
      <point x="306" y="323" type="line"/>
    </contour>
    <contour>
      <point x="306" y="304" type="line"/>
      <point x="293" y="287" type="line"/>
      <point x="450" y="252" type="line"/>
      <point x="458" y="268" type="line"/>
    </contour>
    <contour>
      <point x="267" y="274" type="line"/>
      <point x="285" y="264" type="line"/>
      <point x="320" y="289" type="line"/>
      <point x="306" y="304" type="line"/>
    </contour>
    <contour>
      <point x="262" y="336" type="line"/>
      <point x="306" y="311" type="line"/>
      <point x="319" y="325" type="line"/>
      <point x="277" y="350" type="line"/>
    </contour>
    <contour>
      <point x="154" y="492" type="line"/>
      <point x="162" y="514" type="line"/>
      <point x="31" y="588" type="line"/>
      <point x="15" y="575" type="line"/>
    </contour>
    <contour>
      <point x="227" y="600" type="line"/>
      <point x="5" y="600" type="line"/>
      <point x="5" y="580" type="line"/>
      <point x="227" y="580" type="line"/>
    </contour>
    <contour>
      <point x="157" y="492" type="line"/>
      <point x="228" y="575" type="line"/>
      <point x="212" y="588" type="line"/>
      <point x="149" y="514" type="line"/>
    </contour>
    <contour>
      <point x="211" y="329" type="line"/>
      <point x="223" y="346" type="line"/>
      <point x="163" y="428" type="line"/>
      <point x="154" y="408" type="line"/>
    </contour>
    <contour>
      <point x="222" y="600" type="line"/>
      <point x="222" y="480" type="line"/>
      <point x="242" y="480" type="line"/>
      <point x="242" y="600" type="line"/>
    </contour>
    <contour>
      <point x="223" y="488" type="line"/>
      <point x="157" y="423" type="line"/>
      <point x="168" y="407" type="line"/>
      <point x="243" y="480" type="line"/>
    </contour>
  </outline>
</glyph>
<glyph name="Hbar" format="2">
  <advance width="537"/>
  <unicode hex="0126"/>
  <outline>
    <contour>
      <point x="24" y="0" type="line"/>
      <point x="244" y="0" type="line"/>
      <point x="244" y="20" type="line"/>
      <point x="24" y="20" type="line"/>
    </contour>
    <contour>
      <point x="37" y="0" type="line"/>
      <point x="182" y="92" type="line"/>
      <point x="169" y="105" type="line"/>
      <point x="24" y="13" type="line"/>
    </contour>
    <contour>
      <point x="24" y="0" type="line"/>
      <point x="44" y="0" type="line"/>
      <point x="44" y="380" type="line"/>
      <point x="24" y="380" type="line"/>
    </contour>
    <contour>
      <point x="231" y="0" type="line"/>
      <point x="244" y="13" type="line"/>
      <point x="185" y="105" type="line"/>
      <point x="172" y="92" type="line"/>
    </contour>
    <contour>
      <point x="224" y="0" type="line"/>
      <point x="244" y="0" type="line"/>
      <point x="244" y="231" type="line"/>
      <point x="224" y="231" type="line"/>
    </contour>
    <contour>
      <point x="167" y="90" type="line"/>
      <point x="187" y="90" type="line"/>
      <point x="187" y="510" type="line"/>
      <point x="167" y="510" type="line"/>
    </contour>
    <contour>
      <point x="301" y="0" type="line"/>
      <point x="321" y="0" type="line"/>
      <point x="321" y="228" type="line"/>
      <point x="301" y="228" type="line"/>
    </contour>
    <contour>
      <point x="231" y="220" type="line"/>
      <point x="247" y="232" type="line"/>
      <point x="182" y="320" type="line"/>
      <point x="167" y="309" type="line"/>
    </contour>
    <contour>
      <point x="301" y="0" type="line"/>
      <point x="513" y="0" type="line"/>
      <point x="513" y="20" type="line"/>
      <point x="301" y="20" type="line"/>
    </contour>
    <contour>
      <point x="314" y="0" type="line"/>
      <point x="451" y="92" type="line"/>
      <point x="438" y="105" type="line"/>
      <point x="301" y="13" type="line"/>
    </contour>
    <contour>
      <point x="231" y="220" type="line"/>
      <point x="311" y="220" type="line"/>
      <point x="311" y="240" type="line"/>
      <point x="231" y="240" type="line"/>
    </contour>
    <contour>
      <point x="182" y="298" type="line"/>
      <point x="231" y="373" type="line"/>
      <point x="218" y="388" type="line"/>
      <point x="167" y="309" type="line"/>
    </contour>
    <contour>
      <point x="500" y="0" type="line"/>
      <point x="513" y="13" type="line"/>
      <point x="454" y="105" type="line"/>
      <point x="441" y="92" type="line"/>
    </contour>
    <contour>
      <point x="169" y="495" type="line"/>
      <point x="182" y="508" type="line"/>
      <point x="37" y="600" type="line"/>
      <point x="24" y="587" type="line"/>
    </contour>
    <contour>
      <point x="187" y="300" type="line"/>
      <point x="432" y="300" type="line"/>
      <point x="432" y="320" type="line"/>
      <point x="187" y="320" type="line"/>
    </contour>
    <contour>
      <point x="311" y="220" type="line"/>
      <point x="456" y="311" type="line"/>
      <point x="442" y="322" type="line"/>
      <point x="298" y="234" type="line"/>
    </contour>
    <contour>
      <point x="29" y="580" type="line"/>
      <point x="244" y="580" type="line"/>
      <point x="244" y="600" type="line"/>
      <point x="29" y="600" type="line"/>
    </contour>
    <contour>
      <point x="184" y="495" type="line"/>
      <point x="243" y="587" type="line"/>
      <point x="230" y="600" type="line"/>
      <point x="171" y="508" type="line"/>
    </contour>
    <contour>
      <point x="224" y="530" type="line"/>
      <point x="244" y="530" type="line"/>
      <point x="244" y="600" type="line"/>
      <point x="224" y="600" type="line"/>
    </contour>
    <contour>
      <point x="441" y="300" type="line"/>
      <point x="456" y="311" type="line"/>
      <point x="329" y="387" type="line"/>
      <point x="316" y="374" type="line"/>
    </contour>
    <contour>
      <point x="436" y="90" type="line"/>
      <point x="456" y="90" type="line"/>
      <point x="456" y="510" type="line"/>
      <point x="436" y="510" type="line"/>
    </contour>
    <contour>
      <point x="301" y="530" type="line"/>
      <point x="321" y="530" type="line"/>
      <point x="321" y="600" type="line"/>
      <point x="301" y="600" type="line"/>
    </contour>
    <contour>
      <point x="438" y="495" type="line"/>
      <point x="451" y="508" type="line"/>
      <point x="314" y="600" type="line"/>
      <point x="301" y="587" type="line"/>
    </contour>
    <contour>
      <point x="453" y="495" type="line"/>
      <point x="512" y="587" type="line"/>
      <point x="499" y="600" type="line"/>
      <point x="440" y="508" type="line"/>
    </contour>
    <contour>
      <point x="306" y="580" type="line"/>
      <point x="513" y="580" type="line"/>
      <point x="513" y="600" type="line"/>
      <point x="306" y="600" type="line"/>
    </contour>
    <contour>
      <point x="99" y="452" type="line"/>
      <point x="114" y="462" type="line"/>
      <point x="21" y="544" type="line"/>
      <point x="7" y="533" type="line"/>
    </contour>
    <contour>
      <point x="5" y="371" type="line"/>
      <point x="24" y="371" type="line"/>
      <point x="24" y="544" type="line"/>
      <point x="5" y="544" type="line"/>
    </contour>
    <contour>
      <point x="99" y="463" type="line"/>
      <point x="7" y="382" type="line"/>
      <point x="21" y="371" type="line"/>
      <point x="114" y="453" type="line"/>
    </contour>
    <contour>
      <point x="45" y="544" type="line"/>
      <point x="7" y="544" type="line"/>
      <point x="7" y="523" type="line"/>
      <point x="45" y="523" type="line"/>
    </contour>
    <contour>
      <point x="174" y="467" type="line"/>
      <point x="97" y="467" type="line"/>
      <point x="97" y="448" type="line"/>
      <point x="174" y="448" type="line"/>
    </contour>
    <contour>
      <point x="45" y="392" type="line"/>
      <point x="7" y="392" type="line"/>
      <point x="7" y="371" type="line"/>
      <point x="45" y="371" type="line"/>
    </contour>
    <contour>
      <point x="162" y="454" type="line"/>
      <point x="174" y="464" type="line"/>
      <point x="45" y="544" type="line"/>
      <point x="29" y="533" type="line"/>
    </contour>
    <contour>
      <point x="162" y="461" type="line"/>
      <point x="29" y="382" type="line"/>
      <point x="45" y="371" type="line"/>
      <point x="174" y="451" type="line"/>
    </contour>
    <contour>
      <point x="513" y="0" type="line"/>
      <point x="513" y="380" type="line"/>
      <point x="493" y="380" type="line"/>
      <point x="493" y="0" type="line"/>
    </contour>
    <contour>
      <point x="530" y="452" type="line"/>
      <point x="530" y="533" type="line"/>
      <point x="516" y="544" type="line"/>
      <point x="515" y="462" type="line"/>
    </contour>
    <contour>
      <point x="532" y="371" type="line"/>
      <point x="532" y="544" type="line"/>
      <point x="513" y="544" type="line"/>
      <point x="513" y="371" type="line"/>
    </contour>
    <contour>
      <point x="530" y="463" type="line"/>
      <point x="515" y="453" type="line"/>
      <point x="516" y="371" type="line"/>
      <point x="530" y="382" type="line"/>
    </contour>
    <contour>
      <point x="495" y="544" type="line"/>
      <point x="492" y="523" type="line"/>
      <point x="530" y="523" type="line"/>
      <point x="530" y="544" type="line"/>
    </contour>
    <contour>
      <point x="449" y="467" type="line"/>
      <point x="449" y="448" type="line"/>
      <point x="532" y="448" type="line"/>
      <point x="532" y="467" type="line"/>
    </contour>
    <contour>
      <point x="492" y="392" type="line"/>
      <point x="495" y="371" type="line"/>
      <point x="530" y="371" type="line"/>
      <point x="530" y="392" type="line"/>
    </contour>
    <contour>
      <point x="461" y="454" type="line"/>
      <point x="508" y="533" type="line"/>
      <point x="495" y="544" type="line"/>
      <point x="449" y="464" type="line"/>
    </contour>
    <contour>
      <point x="461" y="461" type="line"/>
      <point x="449" y="451" type="line"/>
      <point x="495" y="371" type="line"/>
      <point x="508" y="382" type="line"/>
    </contour>
    <contour>
      <point x="174" y="467" type="line"/>
      <point x="174" y="448" type="line"/>
      <point x="449" y="448" type="line"/>
      <point x="449" y="467" type="line"/>
    </contour>
    <contour>
      <point x="190" y="454" type="line"/>
      <point x="243" y="531" type="line"/>
      <point x="227" y="542" type="line"/>
      <point x="174" y="464" type="line"/>
    </contour>
    <contour>
      <point x="190" y="461" type="line"/>
      <point x="174" y="451" type="line"/>
      <point x="227" y="373" type="line"/>
      <point x="243" y="384" type="line"/>
    </contour>
    <contour>
      <point x="318" y="542" type="line"/>
      <point x="227" y="542" type="line"/>
      <point x="227" y="523" type="line"/>
      <point x="318" y="523" type="line"/>
    </contour>
    <contour>
      <point x="328" y="392" type="line"/>
      <point x="227" y="392" type="line"/>
      <point x="227" y="373" type="line"/>
      <point x="328" y="373" type="line"/>
    </contour>
    <contour>
      <point x="433" y="454" type="line"/>
      <point x="449" y="464" type="line"/>
      <point x="318" y="542" type="line"/>
      <point x="302" y="531" type="line"/>
    </contour>
    <contour>
      <point x="433" y="461" type="line"/>
      <point x="302" y="384" type="line"/>
      <point x="318" y="373" type="line"/>
      <point x="449" y="451" type="line"/>
    </contour>
    <contour>
      <point x="24" y="530" type="line"/>
      <point x="44" y="530" type="line"/>
      <point x="44" y="600" type="line"/>
      <point x="24" y="600" type="line"/>
    </contour>
    <contour>
      <point x="493" y="530" type="line"/>
      <point x="513" y="530" type="line"/>
      <point x="513" y="600" type="line"/>
      <point x="493" y="600" type="line"/>
    </contour>
  </outline>
</glyph>
